# 3ds Max Wavefront OBJ Exporter v0.97b - (c)2007 guruware
# File Created: 19.05.2019 16:04:47

#
# object Brick_Faces_Real
#

v  -1.208000063896 1.208000302315 -1.439999818802
v  1.208000063896 1.440000295639 -1.207999825478
v  -1.440000057220 1.207999825478 1.208000302315
v  1.208000063896 1.439999818802 1.208000302315
v  -1.208000063896 -1.207999944687 -1.440000295639
v  1.440000057220 -1.207999944687 -1.208000302315
v  -1.440000057220 -1.208000421524 1.207999825478
v  1.208000063896 -1.208000421524 1.439999818802
v  -1.440000057220 1.208000302315 -1.207999825478
v  -1.208000063896 1.440000295639 -1.207999825478
v  1.440000057220 1.208000302315 -1.207999825478
v  1.208000063896 1.208000302315 -1.439999818802
v  -1.208000063896 1.207999825478 1.440000295639
v  -1.208000063896 1.439999818802 1.208000302315
v  1.208000063896 1.207999825478 1.440000295639
v  1.440000057220 1.207999825478 1.208000302315
v  -1.208000063896 -1.439999818802 -1.208000302315
v  -1.440000057220 -1.207999944687 -1.208000302315
v  1.208000063896 -1.439999818802 -1.208000302315
v  1.208000063896 -1.207999944687 -1.440000295639
v  -1.208000063896 -1.440000295639 1.207999825478
v  -1.208000063896 -1.208000421524 1.439999818802
v  1.208000063896 -1.440000295639 1.207999825478
v  1.440000057220 -1.208000421524 1.207999825478
# 24 vertices

vn 0.000000000000 1.000000000000 0.000000162921
vn 0.000000000000 1.000000000000 0.000000162921
vn 0.000000000000 1.000000000000 0.000000162921
vn 0.000000000000 1.000000000000 0.000000162921
vn 0.000000000000 1.000000000000 0.000000162921
vn 0.000000000000 1.000000000000 0.000000162921
vn 0.000000000000 -1.000000000000 -0.000000162921
vn 0.000000000000 -1.000000000000 -0.000000162921
vn 0.000000000000 -1.000000000000 -0.000000162921
vn 0.000000000000 -1.000000000000 -0.000000162921
vn 0.000000000000 -1.000000000000 -0.000000162921
vn 0.000000000000 -1.000000000000 -0.000000162921
vn 0.000000000000 0.000000162921 -1.000000000000
vn 0.000000000000 0.000000162921 -1.000000000000
vn 0.000000000000 0.000000162921 -1.000000000000
vn 0.000000000000 0.000000162921 -1.000000000000
vn 0.000000000000 0.000000162921 -1.000000000000
vn 0.000000000000 0.000000162921 -1.000000000000
vn 1.000000000000 0.000000000000 0.000000000000
vn 1.000000000000 0.000000000000 0.000000000000
vn 1.000000000000 0.000000000000 0.000000000000
vn 1.000000000000 0.000000000000 0.000000000000
vn 1.000000000000 0.000000000000 0.000000000000
vn 1.000000000000 0.000000000000 0.000000000000
vn 0.000000000000 -0.000000162921 1.000000000000
vn 0.000000000000 -0.000000162921 1.000000000000
vn 0.000000000000 -0.000000162921 1.000000000000
vn 0.000000000000 -0.000000162921 1.000000000000
vn 0.000000000000 -0.000000162921 1.000000000000
vn 0.000000000000 -0.000000162921 1.000000000000
vn -1.000000000000 0.000000000000 0.000000000000
vn -1.000000000000 0.000000000000 0.000000000000
vn -1.000000000000 0.000000000000 0.000000000000
vn -1.000000000000 0.000000000000 0.000000000000
vn -1.000000000000 0.000000000000 0.000000000000
vn -1.000000000000 0.000000000000 0.000000000000
# 36 vertex normals

vt 0.343316465616 0.019605508074 0.000000000000
vt 0.667174816132 0.019754033536 0.000000000000
vt 0.022617047653 0.348763465881 0.000000000000
vt 0.667174816132 0.330463320017 0.000000000000
vt 0.343316465616 0.330314785242 0.000000000000
vt 0.667228102684 0.659408271313 0.000000000000
vt 0.022617047653 0.659472584724 0.000000000000
vt 0.343345969915 0.981148958206 0.000000000000
vt 0.333326190710 0.348763465881 0.000000000000
vt 0.977883934975 0.019754033536 0.000000000000
vt 0.667228102684 0.348699122667 0.000000000000
vt 0.654025554657 0.019605508074 0.000000000000
vt 0.654055058956 0.670439898968 0.000000000000
vt 0.977883934975 0.330463320017 0.000000000000
vt 0.343345969915 0.670439898968 0.000000000000
vt 0.977937221527 0.348699122667 0.000000000000
vt 0.343295067549 0.348705887794 0.000000000000
vt 0.333326190710 0.659472584724 0.000000000000
vt 0.654004156590 0.348705887794 0.000000000000
vt 0.654025554657 0.330314785242 0.000000000000
vt 0.343295067549 0.659415006638 0.000000000000
vt 0.654055058956 0.981148958206 0.000000000000
vt 0.654004156590 0.659415006638 0.000000000000
vt 0.977937221527 0.659408271313 0.000000000000
# 24 texture coords

g Brick_Faces_Real
f 10/10/1 14/14/2 4/4/3 
f 4/4/4 2/2/5 10/10/6 
f 17/17/7 19/19/8 23/23/9 
f 23/23/10 21/21/11 17/17/12 
f 1/1/13 12/12/14 20/20/15 
f 20/20/16 5/5/17 1/1/18 
f 11/11/19 16/16/20 24/24/21 
f 24/24/22 6/6/23 11/11/24 
f 15/15/25 13/13/26 22/22/27 
f 22/22/28 8/8/29 15/15/30 
f 3/3/31 9/9/32 18/18/33 
f 18/18/34 7/7/35 3/3/36 
# 12 faces

