# 3ds Max Wavefront OBJ Exporter v0.97b - (c)2007 guruware
# File Created: 28.09.2012 17:23:37

#
# object Shape017
#

v  -0.027309179306 -0.091592818499 0.062412291765
v  0.009239673615 -0.091592818499 0.060936778784
v  -0.083773255348 -0.091592825949 0.244445860386
v  -0.119885802269 -0.091592825949 0.202779188752
v  -0.233589172363 -0.091592803597 -0.215856254101
v  -0.047527551651 -0.091592811048 -0.034070014954
v  0.042616844177 -0.091592825949 0.260416686535
v  0.087755918503 -0.091592825949 0.217359766364
v  0.167675018311 -0.091592811048 0.017262697220
v  -0.157154798508 -0.091592803597 -0.260226547718
v  -0.048352599144 -0.091592803597 -0.260416626930
v  -0.023355245590 -0.091592811048 -0.140279173851
v  0.029830217361 -0.091592811048 -0.027259767056
v  0.005812644958 -0.091592811048 -0.140279173851
v  0.233589172363 -0.091592803597 -0.206251382828
v  0.152337789536 -0.091592803597 -0.238891601563
v  0.059286355972 -0.091592803597 -0.238891601563
v  -0.027309179306 0.091592729092 0.062412291765
v  0.009239673615 0.091592729092 0.060936778784
v  -0.083773255348 0.091592729092 0.244445875287
v  -0.119885802269 0.091592729092 0.202779203653
v  -0.233589172363 0.091592743993 -0.215856254101
v  -0.047527551651 0.091592729092 -0.034070014954
v  0.042616844177 0.091592729092 0.260416716337
v  0.087755918503 0.091592729092 0.217359781265
v  0.167675018311 0.091592729092 0.017262697220
v  -0.157154798508 0.091592743993 -0.260226547718
v  -0.048352599144 0.091592743993 -0.260416626930
v  -0.023355245590 0.091592743993 -0.140279173851
v  0.029830217361 0.091592729092 -0.027259767056
v  0.005812644958 0.091592743993 -0.140279173851
v  0.233589172363 0.091592743993 -0.206251382828
v  0.152337789536 0.091592743993 -0.238891601563
v  0.059286355972 0.091592743993 -0.238891601563
# 34 vertices

vn 0.000000000000 -1.000000000000 -0.000000043711
vn 0.000000000000 -1.000000000000 -0.000000043711
vn 0.000000000000 -1.000000000000 -0.000000043711
vn 0.000000000000 -1.000000000000 -0.000000043711
vn 0.000000000000 -1.000000000000 -0.000000043711
vn 0.000000000000 -1.000000000000 -0.000000043711
vn 0.000000000000 -1.000000000000 -0.000000043711
vn 0.000000000000 -1.000000000000 -0.000000043711
vn 0.000000000000 -1.000000000000 -0.000000043711
vn 0.000000000000 -1.000000000000 -0.000000043711
vn 0.000000000000 -1.000000000000 -0.000000043711
vn 0.000000000000 -1.000000000000 -0.000000043711
vn 0.000000000000 -1.000000000000 -0.000000043711
vn 0.000000000000 -1.000000000000 -0.000000043711
vn 0.000000000000 -1.000000000000 -0.000000043711
vn 0.000000000000 -1.000000000000 -0.000000043711
vn 0.000000000000 -1.000000000000 -0.000000043711
vn 0.000000000000 -1.000000000000 -0.000000043711
vn 0.000000000000 -1.000000000000 -0.000000043711
vn 0.000000000000 -1.000000000000 -0.000000043711
vn 0.000000000000 -1.000000000000 -0.000000043711
vn 0.000000000000 -1.000000000000 -0.000000043711
vn 0.000000000000 -1.000000000000 -0.000000043711
vn 0.000000000000 -1.000000000000 -0.000000043711
vn 0.000000000000 -1.000000000000 -0.000000043711
vn 0.000000000000 -1.000000000000 -0.000000043711
vn 0.000000000000 -1.000000000000 -0.000000043711
vn 0.000000000000 -1.000000000000 -0.000000043711
vn 0.000000000000 -1.000000000000 -0.000000043711
vn 0.000000000000 -1.000000000000 -0.000000043711
vn 0.000000000000 -1.000000000000 -0.000000043711
vn 0.000000000000 -1.000000000000 -0.000000043711
vn 0.000000000000 -1.000000000000 -0.000000043711
vn 0.000000000000 -1.000000000000 -0.000000043711
vn 0.000000000000 -1.000000000000 -0.000000043711
vn 0.000000000000 -1.000000000000 -0.000000043711
vn 0.000000000000 -1.000000000000 -0.000000043711
vn 0.000000000000 -1.000000000000 -0.000000043711
vn 0.000000000000 -1.000000000000 -0.000000043711
vn 0.000000000000 -1.000000000000 -0.000000043711
vn 0.000000000000 -1.000000000000 -0.000000043711
vn 0.000000000000 -1.000000000000 -0.000000043711
vn 0.000000000000 -1.000000000000 -0.000000043711
vn 0.000000000000 -1.000000000000 -0.000000043711
vn 0.000000000000 -1.000000000000 -0.000000043711
vn 0.000000000000 -1.000000000000 -0.000000043711
vn 0.000000000000 -1.000000000000 -0.000000043711
vn 0.000000000000 -1.000000000000 -0.000000043711
vn 0.000000000000 -1.000000000000 -0.000000043711
vn 0.000000000000 -1.000000000000 -0.000000043711
vn 0.000000000000 -1.000000000000 -0.000000043711
vn 0.000000000000 1.000000000000 0.000000043711
vn 0.000000000000 1.000000000000 0.000000043711
vn 0.000000000000 1.000000000000 0.000000043711
vn 0.000000000000 1.000000000000 0.000000043711
vn 0.000000000000 1.000000000000 0.000000043711
vn 0.000000000000 1.000000000000 0.000000043711
vn 0.000000000000 1.000000000000 0.000000043711
vn 0.000000000000 1.000000000000 0.000000043711
vn 0.000000000000 1.000000000000 0.000000043711
vn 0.000000000000 1.000000000000 0.000000043711
vn 0.000000000000 1.000000000000 0.000000043711
vn 0.000000000000 1.000000000000 0.000000043711
vn 0.000000000000 1.000000000000 0.000000043711
vn 0.000000000000 1.000000000000 0.000000043711
vn 0.000000000000 1.000000000000 0.000000043711
vn 0.000000000000 1.000000000000 0.000000043711
vn 0.000000000000 1.000000000000 0.000000043711
vn 0.000000000000 1.000000000000 0.000000043711
vn 0.000000000000 1.000000000000 0.000000043711
vn 0.000000000000 1.000000000000 0.000000043711
vn 0.000000000000 1.000000000000 0.000000043711
vn 0.000000000000 1.000000000000 0.000000043711
vn 0.000000000000 1.000000000000 0.000000043711
vn 0.000000000000 1.000000000000 0.000000043711
vn 0.000000000000 1.000000000000 0.000000043711
vn 0.000000000000 1.000000000000 0.000000043711
vn 0.000000000000 1.000000000000 0.000000043711
vn 0.000000000000 1.000000000000 0.000000043711
vn 0.000000000000 1.000000000000 0.000000043711
vn 0.000000000000 1.000000000000 0.000000043711
vn 0.000000000000 1.000000000000 0.000000043711
vn 0.000000000000 1.000000000000 0.000000043711
vn 0.000000000000 1.000000000000 0.000000043711
vn 0.000000000000 1.000000000000 0.000000043711
vn 0.000000000000 1.000000000000 0.000000043711
vn 0.000000000000 1.000000000000 0.000000043711
vn 0.000000000000 1.000000000000 0.000000043711
vn 0.000000000000 1.000000000000 0.000000043711
vn 0.000000000000 1.000000000000 0.000000043711
vn 0.000000000000 1.000000000000 0.000000043711
vn 0.000000000000 1.000000000000 0.000000043711
vn 0.000000000000 1.000000000000 0.000000043711
vn 0.000000000000 1.000000000000 0.000000043711
vn 0.000000000000 1.000000000000 0.000000043711
vn 0.000000000000 1.000000000000 0.000000043711
vn 0.000000000000 1.000000000000 0.000000043711
vn 0.000000000000 1.000000000000 0.000000043711
vn 0.000000000000 1.000000000000 0.000000043711
vn 0.000000000000 1.000000000000 0.000000043711
vn 0.000000000000 1.000000000000 0.000000043711
vn 0.000000000000 1.000000000000 0.000000043711
vn -0.471676111221 -0.000000038543 0.881771862507
vn -0.125364586711 -0.000000043367 0.992110729218
vn -0.125364586711 -0.000000043367 0.992110729218
vn -0.125364586711 -0.000000043367 0.992110729218
vn -0.471676141024 -0.000000038543 0.881771862507
vn -0.471676111221 -0.000000038543 0.881771862507
vn 0.690221011639 -0.000000031630 0.723598599434
vn 0.828430831432 -0.000000024482 0.560091435909
vn 0.828430771828 -0.000000024482 0.560091435909
vn 0.828430771828 -0.000000024482 0.560091435909
vn 0.690221071243 -0.000000031630 0.723598599434
vn 0.690221011639 -0.000000031630 0.723598599434
vn 0.828430831432 -0.000000024482 0.560091435909
vn 0.944941461086 -0.000000014304 0.327239364386
vn 0.944941461086 -0.000000014304 0.327239394188
vn 0.944941461086 -0.000000014304 0.327239394188
vn 0.828430771828 -0.000000024482 0.560091435909
vn 0.828430831432 -0.000000024482 0.560091435909
vn 0.944941461086 -0.000000014304 0.327239364386
vn 0.959162294865 -0.000000012364 0.282856315374
vn 0.959162294865 -0.000000012364 0.282856315374
vn 0.959162294865 -0.000000012364 0.282856315374
vn 0.944941461086 -0.000000014304 0.327239394188
vn 0.944941461086 -0.000000014304 0.327239364386
vn 0.372765272856 0.000000040561 -0.927925646305
vn 0.189834579825 0.000000042917 -0.981816112995
vn 0.189834579825 0.000000042917 -0.981816112995
vn 0.189834579825 0.000000042917 -0.981816112995
vn 0.372765302658 0.000000040561 -0.927925646305
vn 0.372765272856 0.000000040561 -0.927925646305
vn 0.189834579825 0.000000042917 -0.981816112995
vn 0.000000000000 0.000000043711 -1.000000000000
vn 0.000000000000 0.000000043711 -1.000000000000
vn 0.000000000000 0.000000043711 -1.000000000000
vn 0.189834579825 0.000000042917 -0.981816112995
vn 0.189834579825 0.000000042917 -0.981816112995
vn -0.879072964191 0.000000020837 -0.476687252522
vn -0.879072964191 0.000000020837 -0.476687282324
vn -0.879072964191 0.000000020837 -0.476687252522
vn -0.879072964191 0.000000020837 -0.476687252522
vn -0.879072964191 0.000000020837 -0.476687282324
vn -0.879072964191 0.000000020837 -0.476687252522
vn 0.000000000000 0.000000043711 -1.000000000000
vn 0.000000000000 0.000000043711 -1.000000000000
vn 0.000000000000 0.000000043711 -1.000000000000
vn 0.000000000000 0.000000043711 -1.000000000000
vn 0.000000000000 0.000000043711 -1.000000000000
vn 0.000000000000 0.000000043711 -1.000000000000
vn 0.979031264782 0.000000008904 -0.203709915280
vn 0.979031264782 0.000000008904 -0.203709915280
vn 0.979031264782 0.000000008904 -0.203709915280
vn 0.979031264782 0.000000008904 -0.203709915280
vn 0.979031264782 0.000000008904 -0.203709915280
vn 0.979031264782 0.000000008904 -0.203709915280
vn -0.001747013535 0.000000043711 -0.999998450279
vn -0.260802239180 0.000000042199 -0.965392231941
vn -0.260802209377 0.000000042199 -0.965392231941
vn -0.260802209377 0.000000042199 -0.965392231941
vn -0.001747013652 0.000000043711 -0.999998450279
vn -0.001747013535 0.000000043711 -0.999998450279
vn -0.260802239180 0.000000042199 -0.965392231941
vn -0.502042770386 0.000000037803 -0.864842772484
vn -0.502042829990 0.000000037803 -0.864842772484
vn -0.502042829990 0.000000037803 -0.864842772484
vn -0.260802209377 0.000000042199 -0.965392231941
vn -0.260802239180 0.000000042199 -0.965392231941
vn -0.965038299561 -0.000000011457 0.262108951807
vn -0.882493495941 -0.000000020559 0.470324635506
vn -0.882493495941 -0.000000020559 0.470324635506
vn -0.882493495941 -0.000000020559 0.470324635506
vn -0.965038299561 -0.000000011457 0.262108951807
vn -0.965038299561 -0.000000011457 0.262108951807
vn -0.882493495941 -0.000000020559 0.470324635506
vn -0.471676111221 -0.000000038543 0.881771862507
vn -0.471676141024 -0.000000038543 0.881771862507
vn -0.471676141024 -0.000000038543 0.881771862507
vn -0.882493495941 -0.000000020559 0.470324635506
vn -0.882493495941 -0.000000020559 0.470324635506
vn -0.087696552277 -0.000000043543 0.996147215366
vn -0.087696544826 -0.000000043543 0.996147215366
vn -0.087696552277 -0.000000043543 0.996147215366
vn -0.087696552277 -0.000000043543 0.996147215366
vn -0.087696544826 -0.000000043543 0.996147215366
vn -0.087696552277 -0.000000043543 0.996147215366
vn -0.973813474178 0.000000009938 -0.227348476648
vn -0.973813474178 0.000000009938 -0.227348446846
vn -0.973813474178 0.000000009938 -0.227348476648
vn -0.973813474178 0.000000009938 -0.227348476648
vn -0.973813474178 0.000000009938 -0.227348446846
vn -0.973813474178 0.000000009938 -0.227348476648
vn -0.040338121355 0.000000043676 -0.999186098576
vn -0.040338117629 0.000000043676 -0.999186098576
vn -0.040338121355 0.000000043676 -0.999186098576
vn -0.040338121355 0.000000043676 -0.999186098576
vn -0.040338117629 0.000000043676 -0.999186098576
vn -0.040338121355 0.000000043676 -0.999186098576
vn 0.978740990162 0.000000008965 -0.205100297928
vn 0.978740990162 0.000000008965 -0.205100297928
vn 0.978740990162 0.000000008965 -0.205100297928
vn 0.978740990162 0.000000008965 -0.205100297928
vn 0.978740990162 0.000000008965 -0.205100297928
vn 0.978740990162 0.000000008965 -0.205100297928
# 204 vertex normals

vt 0.887930274010 0.661314249039 0.000000000000
vt 0.913720488548 0.661314070225 0.000000000000
vt 0.913720726967 0.698398649693 0.000000000000
vt 0.887930691242 0.698398828506 0.000000000000
vt 0.161283493042 0.798833370209 0.000000000000
vt 0.161283314228 0.835918903351 0.000000000000
vt 0.204904183745 0.798833787441 0.000000000000
vt 0.204904064536 0.835919141769 0.000000000000
vt 0.252080261707 0.798833787441 0.000000000000
vt 0.252080321312 0.835919022560 0.000000000000
vt 0.269806861877 0.798833549023 0.000000000000
vt 0.269807040691 0.835918962955 0.000000000000
vt 0.288644850254 0.798833370209 0.000000000000
vt 0.288645058870 0.835918784142 0.000000000000
vt 0.311354786158 0.798833370209 0.000000000000
vt 0.311355054379 0.835918664932 0.000000000000
vt 0.317259579897 0.798833310604 0.000000000000
vt 0.317260026932 0.835918545723 0.000000000000
vt 0.749027252197 0.661314666271 0.000000000000
vt 0.749026834965 0.698400795460 0.000000000000
vt 0.771054327488 0.661315262318 0.000000000000
vt 0.771054089069 0.698400974274 0.000000000000
vt 0.788946330547 0.661315560341 0.000000000000
vt 0.788946628571 0.698400795460 0.000000000000
vt 0.876767694950 0.661314249039 0.000000000000
vt 0.876768290997 0.698399186134 0.000000000000
vt 0.569466531277 0.091560170054 0.000000000000
vt 0.585187911987 0.091560199857 0.000000000000
vt 0.585188150406 0.128645509481 0.000000000000
vt 0.569466710091 0.128645613790 0.000000000000
vt 0.603523075581 0.091560162604 0.000000000000
vt 0.603523373604 0.128645330667 0.000000000000
vt 0.610928177834 0.091560177505 0.000000000000
vt 0.610928535461 0.128645285964 0.000000000000
vt 0.361084789038 0.249785304070 0.000000000000
vt 0.401653707027 0.265940755606 0.000000000000
vt 0.410383194685 0.275065481663 0.000000000000
vt 0.407145142555 0.300614953041 0.000000000000
vt 0.398697435856 0.307915002108 0.000000000000
vt 0.313820898533 0.330899894238 0.000000000000
vt 0.304825007915 0.315448850393 0.000000000000
vt 0.304786413908 0.293454706669 0.000000000000
vt 0.350677311420 0.293287992477 0.000000000000
vt 0.370238691568 0.289200901985 0.000000000000
vt 0.369939416647 0.281812608242 0.000000000000
vt 0.352057993412 0.277650296688 0.000000000000
vt 0.329143792391 0.288401603699 0.000000000000
vt 0.329143792391 0.282505333424 0.000000000000
vt 0.309150606394 0.271695852280 0.000000000000
vt 0.309150606394 0.252885639668 0.000000000000
vt 0.315768152475 0.236460864544 0.000000000000
vt 0.237366735935 0.175323709846 0.000000000000
vt 0.192015722394 0.162009373307 0.000000000000
vt 0.185392916203 0.178421705961 0.000000000000
vt 0.185392916203 0.197217613459 0.000000000000
vt 0.205401495099 0.208018958569 0.000000000000
vt 0.205401495099 0.213910683990 0.000000000000
vt 0.181025609374 0.218959972262 0.000000000000
vt 0.226951315999 0.218793317676 0.000000000000
vt 0.228333145380 0.203167587519 0.000000000000
vt 0.246228143573 0.207326725125 0.000000000000
vt 0.246527612209 0.214709386230 0.000000000000
vt 0.181064188480 0.240937426686 0.000000000000
vt 0.190066874027 0.256376773119 0.000000000000
vt 0.275007903576 0.233409315348 0.000000000000
vt 0.283462077379 0.226114809513 0.000000000000
vt 0.286702543497 0.200584694743 0.000000000000
vt 0.277966380119 0.191466838121 0.000000000000
vt 0.148654431105 0.798833310604 0.000000000000
vt 0.148654341698 0.835918843746 0.000000000000
vt 0.724184334278 0.661314308643 0.000000000000
vt 0.724183857441 0.698400437832 0.000000000000
vt 0.549509584904 0.091560177505 0.000000000000
vt 0.549509823322 0.128645732999 0.000000000000
# 74 texture coords

g Shape017
f 10/41/1 11/42/2 6/43/3 
f 5/40/4 10/41/5 6/43/6 
f 5/40/7 6/43/8 1/44/9 
f 4/39/10 5/40/11 1/44/12 
f 3/38/13 4/39/14 1/44/15 
f 7/37/16 3/38/17 1/44/18 
f 8/36/19 7/37/20 1/44/21 
f 8/36/22 1/44/23 2/45/24 
f 9/35/25 8/36/26 2/45/27 
f 9/35/28 2/45/29 13/46/30 
f 6/43/31 11/42/32 12/47/33 
f 13/46/34 6/43/35 12/47/36 
f 13/46/37 12/47/38 14/48/39 
f 9/35/40 13/46/41 14/48/42 
f 9/35/43 14/48/44 17/49/45 
f 9/35/46 17/49/47 16/50/48 
f 9/35/49 16/50/50 15/51/51 
f 26/52/52 32/53/53 33/54/54 
f 26/52/55 33/54/56 34/55/57 
f 26/52/58 34/55/59 31/56/60 
f 29/57/61 28/58/62 23/59/63 
f 29/57/64 23/59/65 30/60/66 
f 31/56/67 29/57/68 30/60/69 
f 26/52/70 31/56/71 30/60/72 
f 26/52/73 30/60/74 19/61/75 
f 23/59/76 28/58/77 27/63/78 
f 23/59/79 27/63/80 22/64/81 
f 18/62/82 23/59/83 22/64/84 
f 18/62/85 22/64/86 21/65/87 
f 18/62/88 21/65/89 20/66/90 
f 18/62/91 20/66/92 24/67/93 
f 18/62/94 24/67/95 25/68/96 
f 19/61/97 18/62/98 25/68/99 
f 26/52/100 19/61/101 25/68/102 
f 3/1/103 7/2/104 24/3/105 
f 24/3/106 20/4/107 3/1/108 
f 7/69/109 8/5/110 25/6/111 
f 25/6/112 24/70/113 7/69/114 
f 8/5/115 9/7/116 26/8/117 
f 26/8/118 25/6/119 8/5/120 
f 9/7/121 15/9/122 32/10/123 
f 32/10/124 26/8/125 9/7/126 
f 15/9/127 16/11/128 33/12/129 
f 33/12/130 32/10/131 15/9/132 
f 16/11/133 17/13/134 34/14/135 
f 34/14/136 33/12/137 16/11/138 
f 17/13/139 14/15/140 31/16/141 
f 31/16/142 34/14/143 17/13/144 
f 14/15/145 12/17/146 29/18/147 
f 29/18/148 31/16/149 14/15/150 
f 12/71/151 11/19/152 28/20/153 
f 28/20/154 29/72/155 12/71/156 
f 11/19/157 10/21/158 27/22/159 
f 27/22/160 28/20/161 11/19/162 
f 10/21/163 5/23/164 22/24/165 
f 22/24/166 27/22/167 10/21/168 
f 5/23/169 4/25/170 21/26/171 
f 21/26/172 22/24/173 5/23/174 
f 4/25/175 3/1/176 20/4/177 
f 20/4/178 21/26/179 4/25/180 
f 6/27/181 13/28/182 30/29/183 
f 30/29/184 23/30/185 6/27/186 
f 13/28/187 2/31/188 19/32/189 
f 19/32/190 30/29/191 13/28/192 
f 2/31/193 1/33/194 18/34/195 
f 18/34/196 19/32/197 2/31/198 
f 1/73/199 6/27/200 23/30/201 
f 23/30/202 18/74/203 1/73/204 
# 68 faces

