# 3ds Max Wavefront OBJ Exporter v0.97b - (c)2007 guruware
# File Created: 01.06.2012 18:50:19

#
# object Branch_Big_Stump
#

v  1.146118998528 -0.013648092747 0.097387157381
v  0.903365850449 -0.279894053936 0.647435784340
v  -0.545877933502 -0.085213243961 1.054365992546
v  -0.811553299427 -0.648752391338 0.630206644535
v  -0.945282042027 -0.230926454067 -0.429744660854
v  -0.413858830929 -1.197605848312 -0.507196247578
v  0.519747018814 -0.254812180996 1.025457739830
v  -0.000000037891 -0.879874765873 1.052983522415
v  -1.003932714462 -0.459912359715 0.140979692340
v  -0.000000403012 -1.048426389694 -0.672513663769
v  0.519746541977 -0.429852902889 -0.766470134258
v  0.903365552425 -0.381306111813 -0.390740513802
v  0.736577630043 -1.605837345123 0.252916783094
v  0.501949548721 -1.557030439377 0.752560138702
v  -0.000000031988 -1.534690618515 0.981258332729
v  -0.503617882729 -1.557258844376 0.750222623348
v  -0.734338402748 -1.605837106705 0.252916842699
v  -0.494238674641 -1.655182600021 -0.252242326736
v  -0.000000340227 -1.676983594894 -0.475424885750
v  0.501949191093 -1.654643774033 -0.246726900339
v  0.441839545965 -5.323680400848 1.066458582878
v  0.000123957885 -5.304021358490 1.267713069916
v  -0.443059742451 -5.323881149292 1.064401626587
v  -0.540449917316 -5.354887008667 0.624592840672
v  0.000123688005 -5.395785331726 0.205922245979
v  0.545075833797 -5.354650497437 0.627019584179
v  0.390706300735 -9.528748512268 1.757557272911
v  0.000229626865 -9.511367797852 1.935466051102
v  -0.391544699669 -9.528923988342 1.755739092827
v  -0.477637648582 -9.552453994751 1.392478585243
v  0.000229388446 -9.588605880737 1.022373676300
v  0.481967031956 -9.552245140076 1.394623875618
v  0.356804698706 -12.818955421448 2.429512977600
v  0.000299685373 -12.787419319153 2.589640617371
v  -0.357390463352 -12.819277763367 2.427875995636
v  -0.435993105173 -12.889239311218 2.122919797897
v  0.000299467822 -12.954854011536 1.789805769920
v  0.440125942230 -12.888861656189 2.124850988388
v  0.400607883930 -16.128887176514 2.966487407684
v  0.324785560369 -16.041259765625 3.217795848846
v  0.000365855230 -16.004318237305 3.361641407013
v  -0.325131833553 -16.041639328003 3.216324567795
v  -0.396660625935 -16.129335403442 2.964753627777
v  0.000365657354 -16.206201553345 2.665509700775
v  0.019051890820 -16.172666549683 3.100586652756
# 45 vertices

vn 0.822474300861 0.489357560873 0.289940029383
vn 0.711205780506 0.685437321663 0.156083896756
vn 0.986047983170 -0.022550852969 0.164926365018
vn 0.986047983170 -0.022550852969 0.164926365018
vn 0.945226371288 0.001761805965 0.326410740614
vn 0.822474300861 0.489357560873 0.289940029383
vn 0.822474300861 0.489357560873 0.289940029383
vn 0.520303666592 0.802818536758 0.291146814823
vn 0.711205780506 0.685437321663 0.156083896756
vn 0.006817964371 0.951772868633 0.306727796793
vn 0.000008078277 0.987940251827 0.154835522175
vn 0.711205780506 0.685437321663 0.156083896756
vn 0.711205780506 0.685437321663 0.156083896756
vn 0.520303666592 0.802818536758 0.291146814823
vn 0.006817964371 0.951772868633 0.306727796793
vn 0.006817964371 0.951772868633 0.306727796793
vn -0.540230393410 0.803823173046 0.249037235975
vn -0.714071571827 0.682689309120 0.155038923025
vn -0.714071571827 0.682689309120 0.155038923025
vn 0.000008078277 0.987940251827 0.154835522175
vn 0.006817964371 0.951772868633 0.306727796793
vn -0.540230393410 0.803823173046 0.249037235975
vn -0.828614175320 0.489416629076 0.271790295839
vn -0.714071571827 0.682689309120 0.155038923025
vn -0.828614175320 0.489416629076 0.271790295839
vn -0.941255688667 -0.025281596929 0.336747020483
vn -0.986431777477 -0.023182122037 0.162526682019
vn -0.986431777477 -0.023182122037 0.162526682019
vn -0.714071571827 0.682689309120 0.155038923025
vn -0.828614175320 0.489416629076 0.271790295839
vn -0.941255688667 -0.025281596929 0.336747020483
vn -0.854106009007 -0.436371952295 0.282988399267
vn -0.714103698730 -0.678054392338 0.174063354731
vn -0.714103698730 -0.678054392338 0.174063354731
vn -0.986431777477 -0.023182122037 0.162526682019
vn -0.941255688667 -0.025281596929 0.336747020483
vn -0.854106009007 -0.436371952295 0.282988399267
vn -0.467891722918 -0.844081223011 0.261924147606
vn -0.714103698730 -0.678054392338 0.174063354731
vn -0.467891722918 -0.844081223011 0.261924147606
vn 0.021007584408 -0.953664124012 0.300139009953
vn 0.000812402635 -0.980562150478 0.196207091212
vn 0.000812402635 -0.980562150478 0.196207091212
vn -0.714103698730 -0.678054392338 0.174063354731
vn -0.467891722918 -0.844081223011 0.261924147606
vn 0.021007584408 -0.953664124012 0.300139009953
vn 0.518982350826 -0.803354382515 0.292025744915
vn 0.708712935448 -0.683251202106 0.175765797496
vn 0.708712935448 -0.683251202106 0.175765797496
vn 0.000812402635 -0.980562150478 0.196207091212
vn 0.021007584408 -0.953664124012 0.300139009953
vn 0.518982350826 -0.803354382515 0.292025744915
vn 0.802056312561 -0.497930198908 0.329804778099
vn 0.708712935448 -0.683251202106 0.175765797496
vn 0.802056312561 -0.497930198908 0.329804778099
vn 0.945226371288 0.001761805965 0.326410740614
vn 0.986047983170 -0.022550852969 0.164926365018
vn 0.986047983170 -0.022550852969 0.164926365018
vn 0.708712935448 -0.683251202106 0.175765797496
vn 0.802056312561 -0.497930198908 0.329804778099
vn 0.986047983170 -0.022550852969 0.164926365018
vn 0.711205780506 0.685437321663 0.156083896756
vn 0.759833693504 0.650115907192 -0.001440766966
vn 0.759833693504 0.650115907192 -0.001440766966
vn 0.941953182220 -0.330346733332 0.059960026294
vn 0.986047983170 -0.022550852969 0.164926365018
vn 0.711205780506 0.685437321663 0.156083896756
vn 0.000008078277 0.987940251827 0.154835522175
vn -0.001312369714 0.999809622765 -0.019461093470
vn -0.001312369714 0.999809622765 -0.019461093470
vn 0.759833693504 0.650115907192 -0.001440766966
vn 0.711205780506 0.685437321663 0.156083896756
vn 0.000008078277 0.987940251827 0.154835522175
vn -0.714071571827 0.682689309120 0.155038923025
vn -0.764276385307 0.644888043404 -0.000994626782
vn -0.764276385307 0.644888043404 -0.000994626782
vn -0.001312369714 0.999809622765 -0.019461093470
vn 0.000008078277 0.987940251827 0.154835522175
vn -0.714071571827 0.682689309120 0.155038923025
vn -0.986431777477 -0.023182122037 0.162526682019
vn -0.940205216408 -0.335246354342 0.060200188309
vn -0.940205216408 -0.335246354342 0.060200188309
vn -0.764276385307 0.644888043404 -0.000994626782
vn -0.714071571827 0.682689309120 0.155038923025
vn -0.986431777477 -0.023182122037 0.162526682019
vn -0.714103698730 -0.678054392338 0.174063354731
vn -0.940205216408 -0.335246354342 0.060200188309
vn -0.714103698730 -0.678054392338 0.174063354731
vn 0.000812402635 -0.980562150478 0.196207091212
vn -0.000169706298 -0.994928300381 0.100586846471
vn -0.000169706298 -0.994928300381 0.100586846471
vn -0.940205216408 -0.335246354342 0.060200188309
vn -0.714103698730 -0.678054392338 0.174063354731
vn 0.000812402635 -0.980562150478 0.196207091212
vn 0.708712935448 -0.683251202106 0.175765797496
vn 0.941953182220 -0.330346733332 0.059960026294
vn 0.941953182220 -0.330346733332 0.059960026294
vn -0.000169706298 -0.994928300381 0.100586846471
vn 0.000812402635 -0.980562150478 0.196207091212
vn 0.708712935448 -0.683251202106 0.175765797496
vn 0.986047983170 -0.022550852969 0.164926365018
vn 0.941953182220 -0.330346733332 0.059960026294
vn 0.941953182220 -0.330346733332 0.059960026294
vn 0.759833693504 0.650115907192 -0.001440766966
vn 0.771140277386 0.635008454323 -0.045902293175
vn 0.771140277386 0.635008454323 -0.045902293175
vn 0.942668080330 -0.330404579639 0.047007784247
vn 0.941953182220 -0.330346733332 0.059960026294
vn 0.759833693504 0.650115907192 -0.001440766966
vn -0.001312369714 0.999809622765 -0.019461093470
vn -0.001304017263 0.996782720089 -0.080140016973
vn -0.001304017263 0.996782720089 -0.080140016973
vn 0.771140277386 0.635008454323 -0.045902293175
vn 0.759833693504 0.650115907192 -0.001440766966
vn -0.001312369714 0.999809622765 -0.019461093470
vn -0.764276385307 0.644888043404 -0.000994626782
vn -0.776335597038 0.628694057465 -0.045241165906
vn -0.776335597038 0.628694057465 -0.045241165906
vn -0.001304017263 0.996782720089 -0.080140016973
vn -0.001312369714 0.999809622765 -0.019461093470
vn -0.764276385307 0.644888043404 -0.000994626782
vn -0.940205216408 -0.335246354342 0.060200188309
vn -0.940594136715 -0.336195111275 0.047492194921
vn -0.940594136715 -0.336195111275 0.047492194921
vn -0.776335597038 0.628694057465 -0.045241165906
vn -0.764276385307 0.644888043404 -0.000994626782
vn -0.940205216408 -0.335246354342 0.060200188309
vn -0.000169706298 -0.994928300381 0.100586846471
vn -0.000548635784 -0.993916988373 0.110130786896
vn -0.000548635784 -0.993916988373 0.110130786896
vn -0.940594136715 -0.336195111275 0.047492194921
vn -0.940205216408 -0.335246354342 0.060200188309
vn -0.000169706298 -0.994928300381 0.100586846471
vn 0.941953182220 -0.330346733332 0.059960026294
vn 0.942668080330 -0.330404579639 0.047007784247
vn 0.942668080330 -0.330404579639 0.047007784247
vn -0.000548635784 -0.993916988373 0.110130786896
vn -0.000169706298 -0.994928300381 0.100586846471
vn 0.942668080330 -0.330404579639 0.047007784247
vn 0.771140277386 0.635008454323 -0.045902293175
vn 0.766333043575 0.638403415680 -0.071934945881
vn 0.766333043575 0.638403415680 -0.071934945881
vn 0.945353031158 -0.321158945560 0.056254349649
vn 0.942668080330 -0.330404579639 0.047007784247
vn 0.771140277386 0.635008454323 -0.045902293175
vn -0.001304017263 0.996782720089 -0.080140016973
vn -0.001305299462 0.992930352688 -0.118691571057
vn -0.001305299462 0.992930352688 -0.118691571057
vn 0.766333043575 0.638403415680 -0.071934945881
vn 0.771140277386 0.635008454323 -0.045902293175
vn -0.001304017263 0.996782720089 -0.080140016973
vn -0.776335597038 0.628694057465 -0.045241165906
vn -0.771819770336 0.631862998009 -0.071016728878
vn -0.771819770336 0.631862998009 -0.071016728878
vn -0.001305299462 0.992930352688 -0.118691571057
vn -0.001304017263 0.996782720089 -0.080140016973
vn -0.776335597038 0.628694057465 -0.045241165906
vn -0.940594136715 -0.336195111275 0.047492194921
vn -0.943195462227 -0.327308654785 0.057020787150
vn -0.943195462227 -0.327308654785 0.057020787150
vn -0.771819770336 0.631862998009 -0.071016728878
vn -0.776335597038 0.628694057465 -0.045241165906
vn -0.940594136715 -0.336195111275 0.047492194921
vn -0.000548635784 -0.993916988373 0.110130786896
vn -0.000549181656 -0.989344418049 0.145593091846
vn -0.000549181656 -0.989344418049 0.145593091846
vn -0.943195462227 -0.327308654785 0.057020787150
vn -0.940594136715 -0.336195111275 0.047492194921
vn -0.000548635784 -0.993916988373 0.110130786896
vn 0.942668080330 -0.330404579639 0.047007784247
vn 0.945353031158 -0.321158945560 0.056254349649
vn 0.945353031158 -0.321158945560 0.056254349649
vn -0.000549181656 -0.989344418049 0.145593091846
vn -0.000548635784 -0.993916988373 0.110130786896
vn 0.945353031158 -0.321158945560 0.056254349649
vn 0.766333043575 0.638403415680 -0.071934945881
vn 0.769213140011 0.633458793163 -0.083912305534
vn 0.769213140011 0.633458793163 -0.083912305534
vn 0.942993462086 -0.326723664999 0.063363462687
vn 0.945353031158 -0.321158945560 0.056254349649
vn 0.766333043575 0.638403415680 -0.071934945881
vn -0.001305299462 0.992930352688 -0.118691571057
vn -0.001300783595 0.990473270416 -0.137699067593
vn -0.001300783595 0.990473270416 -0.137699067593
vn 0.769213140011 0.633458793163 -0.083912305534
vn 0.766333043575 0.638403415680 -0.071934945881
vn -0.001305299462 0.992930352688 -0.118691571057
vn -0.771819770336 0.631862998009 -0.071016728878
vn -0.774896085262 0.626638531685 -0.082826972008
vn -0.774896085262 0.626638531685 -0.082826972008
vn -0.001300783595 0.990473270416 -0.137699067593
vn -0.001305299462 0.992930352688 -0.118691571057
vn -0.771819770336 0.631862998009 -0.071016728878
vn -0.943195462227 -0.327308654785 0.057020787150
vn -0.940777659416 -0.332880914211 0.064247496426
vn -0.940777659416 -0.332880914211 0.064247496426
vn -0.774896085262 0.626638531685 -0.082826972008
vn -0.771819770336 0.631862998009 -0.071016728878
vn -0.943195462227 -0.327308654785 0.057020787150
vn -0.000549181656 -0.989344418049 0.145593091846
vn -0.000549686200 -0.986281752586 0.165069907904
vn -0.000549686200 -0.986281752586 0.165069907904
vn -0.940777659416 -0.332880914211 0.064247496426
vn -0.943195462227 -0.327308654785 0.057020787150
vn -0.000549181656 -0.989344418049 0.145593091846
vn 0.945353031158 -0.321158945560 0.056254349649
vn 0.942993462086 -0.326723664999 0.063363462687
vn 0.942993462086 -0.326723664999 0.063363462687
vn -0.000549686200 -0.986281752586 0.165069907904
vn -0.000549181656 -0.989344418049 0.145593091846
vn -0.001936072134 -0.020363494754 0.999790847301
vn 0.191481664777 0.139829859138 0.971484541893
vn 0.010968772694 0.229508250952 0.973244965076
vn 0.010968772694 0.229508250952 0.973244965076
vn -0.004023857880 0.457470804453 0.889215648174
vn -0.188684031367 0.347766369581 0.918399095535
vn -0.188684031367 0.347766369581 0.918399095535
vn -0.177563801408 0.144942104816 0.973377108574
vn 0.010968772694 0.229508250952 0.973244965076
vn -0.177563801408 0.144942104816 0.973377108574
vn -0.001936072134 -0.020363494754 0.999790847301
vn 0.010968772694 0.229508250952 0.973244965076
vn -0.004023857880 0.457470804453 0.889215648174
vn 0.010968772694 0.229508250952 0.973244965076
vn 0.202279761434 0.361675292253 0.910095512867
vn 0.010968772694 0.229508250952 0.973244965076
vn 0.191481664777 0.139829859138 0.971484541893
vn 0.202279761434 0.361675292253 0.910095512867
# 228 vertex normals

vt 0.423962771893 0.111012861133 0.000000000000
vt 0.372365474701 0.093754373491 0.000000000000
vt 0.468610405922 0.109112441540 0.000000000000
vt 0.513313770294 0.157626554370 0.000000000000
vt 0.597939193249 0.138302519917 0.000000000000
vt 0.557687222958 0.095655560493 0.000000000000
vt 0.642330408096 0.126180380583 0.000000000000
vt 0.691958725452 0.116841346025 0.000000000000
vt 0.691098451614 0.199887096882 0.000000000000
vt 0.725135564804 0.207955494523 0.000000000000
vt 0.301567435265 0.151695430279 0.000000000000
vt 0.337899208069 0.130810439587 0.000000000000
vt 0.463874042034 0.212674468756 0.000000000000
vt 0.416619062424 0.217305898666 0.000000000000
vt 0.514882266521 0.212271749973 0.000000000000
vt 0.566982030869 0.212778747082 0.000000000000
vt 0.614857554436 0.217681765556 0.000000000000
vt 0.659618616104 0.227737784386 0.000000000000
vt 0.699052512646 0.241538673639 0.000000000000
vt 0.373953819275 0.226802885532 0.000000000000
vt 0.479135870934 0.509970545769 0.000000000000
vt 0.445838570595 0.510894775391 0.000000000000
vt 0.515617728233 0.509777486324 0.000000000000
vt 0.552414178848 0.510353922844 0.000000000000
vt 0.586013972759 0.511543512344 0.000000000000
vt 0.638001620770 0.517851710320 0.000000000000
vt 0.476815521717 0.843400835991 0.000000000000
vt 0.448381423950 0.841823339462 0.000000000000
vt 0.509628117085 0.844092726707 0.000000000000
vt 0.542628586292 0.843914151192 0.000000000000
vt 0.571093380451 0.842799067497 0.000000000000
vt 0.617684841156 0.843393206596 0.000000000000
vt 0.325481891632 0.958669841290 0.000000000000
vt 0.296545267105 0.955189168453 0.000000000000
vt 0.292231976986 0.693183958530 0.000000000000
vt 0.317537128925 0.692690908909 0.000000000000
vt 0.263169944286 0.953994035721 0.000000000000
vt 0.261497676373 0.693105340004 0.000000000000
vt 0.534900784492 0.941696882248 0.000000000000
vt 0.497450470924 0.955531835556 0.000000000000
vt 0.505454778671 0.925143957138 0.000000000000
vt 0.485806465149 0.911273717880 0.000000000000
vt 0.509657263756 0.895624279976 0.000000000000
vt 0.530629277229 0.902355194092 0.000000000000
vt 0.482250928879 0.939422369003 0.000000000000
vt 0.229664281011 0.955630064011 0.000000000000
vt 0.230628862977 0.693585455418 0.000000000000
vt 0.200853422284 0.959472656250 0.000000000000
vt 0.205389872193 0.693418025970 0.000000000000
vt 0.153814807534 0.961637496948 0.000000000000
vt 0.162329748273 0.693275332451 0.000000000000
vt 0.287544012070 0.434377312660 0.000000000000
vt 0.308902084827 0.432060420513 0.000000000000
vt 0.259822607040 0.434754192829 0.000000000000
vt 0.231975212693 0.434732198715 0.000000000000
vt 0.210665002465 0.432686448097 0.000000000000
vt 0.171565786004 0.431588470936 0.000000000000
vt 0.307133853436 0.213011637330 0.000000000000
vt 0.336366772652 0.242168009281 0.000000000000
vt 0.393652558327 0.516241848469 0.000000000000
vt 0.401487171650 0.840839982033 0.000000000000
vt 0.372895479202 0.960239231586 0.000000000000
vt 0.360904753208 0.691982984543 0.000000000000
vt 0.348272860050 0.430441409349 0.000000000000
# 64 texture coords

g Branch_Big_Stump
f 2/1/1 14/13/2 13/14/3 
f 13/14/4 1/2/5 2/1/6 
f 2/1/7 7/3/8 14/13/9 
f 8/4/10 15/15/11 14/13/12 
f 14/13/13 7/3/14 8/4/15 
f 8/4/16 3/6/17 16/16/18 
f 16/16/19 15/15/20 8/4/21 
f 3/6/22 4/5/23 16/16/24 
f 4/5/25 9/7/26 17/17/27 
f 17/17/28 16/16/29 4/5/30 
f 9/7/31 5/8/32 18/18/33 
f 18/18/34 17/17/35 9/7/36 
f 5/8/37 6/9/38 18/18/39 
f 6/9/40 10/10/41 19/19/42 
f 19/19/43 18/18/44 6/9/45 
f 10/58/46 11/11/47 20/20/48 
f 20/20/49 19/59/50 10/58/51 
f 11/11/52 12/12/53 20/20/54 
f 12/12/55 1/2/56 13/14/57 
f 13/14/58 20/20/59 12/12/60 
f 13/14/61 14/13/62 21/21/63 
f 21/21/64 26/22/65 13/14/66 
f 14/13/67 15/15/68 22/23/69 
f 22/23/70 21/21/71 14/13/72 
f 15/15/73 16/16/74 23/24/75 
f 23/24/76 22/23/77 15/15/78 
f 16/16/79 17/17/80 24/25/81 
f 24/25/82 23/24/83 16/16/84 
f 17/17/85 18/18/86 24/25/87 
f 18/18/88 19/19/89 25/26/90 
f 25/26/91 24/25/92 18/18/93 
f 19/59/94 20/20/95 26/22/96 
f 26/22/97 25/60/98 19/59/99 
f 20/20/100 13/14/101 26/22/102 
f 26/22/103 21/21/104 27/27/105 
f 27/27/106 32/28/107 26/22/108 
f 21/21/109 22/23/110 28/29/111 
f 28/29/112 27/27/113 21/21/114 
f 22/23/115 23/24/116 29/30/117 
f 29/30/118 28/29/119 22/23/120 
f 23/24/121 24/25/122 30/31/123 
f 30/31/124 29/30/125 23/24/126 
f 24/25/127 25/26/128 31/32/129 
f 31/32/130 30/31/131 24/25/132 
f 25/60/133 26/22/134 32/28/135 
f 32/28/136 31/61/137 25/60/138 
f 32/33/139 27/34/140 33/35/141 
f 33/35/142 38/36/143 32/33/144 
f 27/34/145 28/37/146 34/38/147 
f 34/38/148 33/35/149 27/34/150 
f 28/37/151 29/46/152 35/47/153 
f 35/47/154 34/38/155 28/37/156 
f 29/46/157 30/48/158 36/49/159 
f 36/49/160 35/47/161 29/46/162 
f 30/48/163 31/50/164 37/51/165 
f 37/51/166 36/49/167 30/48/168 
f 31/62/169 32/33/170 38/36/171 
f 38/36/172 37/63/173 31/62/174 
f 38/36/175 33/35/176 40/52/177 
f 40/52/178 39/53/179 38/36/180 
f 33/35/181 34/38/182 41/54/183 
f 41/54/184 40/52/185 33/35/186 
f 34/38/187 35/47/188 42/55/189 
f 42/55/190 41/54/191 34/38/192 
f 35/47/193 36/49/194 43/56/195 
f 43/56/196 42/55/197 35/47/198 
f 36/49/199 37/51/200 44/57/201 
f 44/57/202 43/56/203 36/49/204 
f 37/63/205 38/36/206 39/53/207 
f 39/53/208 44/64/209 37/63/210 
f 44/39/211 39/40/212 45/41/213 
f 45/41/214 41/42/215 42/43/216 
f 42/43/217 43/44/218 45/41/219 
f 43/44/220 44/39/221 45/41/222 
f 41/42/223 45/41/224 40/45/225 
f 45/41/226 39/40/227 40/45/228 
# 76 faces

