# 3ds Max Wavefront OBJ Exporter v0.97b - (c)2007 guruware
# File Created: 28.09.2012 17:26:15

#
# object Shape022
#

v  -0.025673627853 -0.091592788696 0.039100289345
v  -0.085920572281 -0.091592803597 0.246649265289
v  -0.115453720093 -0.091592796147 0.208509087563
v  -0.250523924828 -0.091592781246 -0.205886125565
v  -0.046619653702 -0.091592788696 -0.029588937759
v  -0.001123428345 -0.091592796147 0.065987467766
v  0.060930728912 -0.091592803597 0.271454095840
v  0.116465091705 -0.091592803597 0.241034746170
v  0.198890447617 -0.091592781246 -0.186565041542
v  0.032015085220 -0.091592788696 0.009095430374
v  0.025221109390 -0.091592788696 -0.042542934418
v  -0.202075123787 -0.091592781246 -0.252884030342
v  -0.095789670944 -0.091592781246 -0.254261255264
v  -0.061636209488 -0.091592781246 -0.234239816666
v  -0.038645744324 -0.091592781246 -0.155313014984
v  -0.025058031082 -0.091592788696 -0.052036404610
v  -0.017848253250 -0.091592781246 -0.135634064674
v  -0.005145788193 -0.091592781246 -0.156218290329
v  0.176896572113 -0.091592781246 -0.231299042702
v  0.022867918015 -0.091592781246 -0.246760010719
v  -0.000213861465 -0.091592781246 -0.219905853271
v  -0.025673627853 0.091592803597 0.039100289345
v  -0.085920572281 0.091592788696 0.246649265289
v  -0.115453720093 0.091592788696 0.208509087563
v  -0.250523924828 0.091592818499 -0.205886125565
v  -0.046619653702 0.091592803597 -0.029588937759
v  -0.001123428345 0.091592803597 0.065987467766
v  0.060930728912 0.091592788696 0.271454095840
v  0.116465091705 0.091592788696 0.241034746170
v  0.198890447617 0.091592803597 -0.186565041542
v  0.032015085220 0.091592803597 0.009095430374
v  0.025221109390 0.091592803597 -0.042542934418
v  -0.202075123787 0.091592818499 -0.252884030342
v  -0.095789670944 0.091592818499 -0.254261255264
v  -0.061636209488 0.091592818499 -0.234239816666
v  -0.038645744324 0.091592803597 -0.155313014984
v  -0.025058031082 0.091592803597 -0.052036404610
v  -0.017848253250 0.091592803597 -0.135634064674
v  -0.005145788193 0.091592803597 -0.156218290329
v  0.176896572113 0.091592818499 -0.231299042702
v  0.022867918015 0.091592818499 -0.246760010719
v  -0.000213861465 0.091592818499 -0.219905853271
# 42 vertices

vn -0.000000005702 -1.000000000000 -0.000000043338
vn -0.000000005702 -1.000000000000 -0.000000043338
vn -0.000000005702 -1.000000000000 -0.000000043338
vn -0.000000005702 -1.000000000000 -0.000000043338
vn -0.000000005702 -1.000000000000 -0.000000043338
vn -0.000000005702 -1.000000000000 -0.000000043338
vn -0.000000005702 -1.000000000000 -0.000000043338
vn -0.000000005702 -1.000000000000 -0.000000043338
vn -0.000000005702 -1.000000000000 -0.000000043338
vn -0.000000005702 -1.000000000000 -0.000000043338
vn -0.000000005702 -1.000000000000 -0.000000043338
vn -0.000000005702 -1.000000000000 -0.000000043338
vn -0.000000005702 -1.000000000000 -0.000000043338
vn -0.000000005702 -1.000000000000 -0.000000043338
vn -0.000000005702 -1.000000000000 -0.000000043338
vn -0.000000005702 -1.000000000000 -0.000000043338
vn -0.000000005702 -1.000000000000 -0.000000043338
vn -0.000000005702 -1.000000000000 -0.000000043338
vn -0.000000005702 -1.000000000000 -0.000000043338
vn -0.000000005702 -1.000000000000 -0.000000043338
vn -0.000000005702 -1.000000000000 -0.000000043338
vn -0.000000005702 -1.000000000000 -0.000000043338
vn -0.000000005702 -1.000000000000 -0.000000043338
vn -0.000000005702 -1.000000000000 -0.000000043338
vn -0.000000005702 -1.000000000000 -0.000000043338
vn -0.000000005702 -1.000000000000 -0.000000043338
vn -0.000000005702 -1.000000000000 -0.000000043338
vn -0.000000005702 -1.000000000000 -0.000000043338
vn -0.000000005702 -1.000000000000 -0.000000043338
vn -0.000000005702 -1.000000000000 -0.000000043338
vn -0.000000005702 -1.000000000000 -0.000000043338
vn -0.000000005702 -1.000000000000 -0.000000043338
vn -0.000000005702 -1.000000000000 -0.000000043338
vn -0.000000005702 -1.000000000000 -0.000000043338
vn -0.000000005702 -1.000000000000 -0.000000043338
vn -0.000000005702 -1.000000000000 -0.000000043338
vn -0.000000005702 -1.000000000000 -0.000000043338
vn -0.000000005702 -1.000000000000 -0.000000043338
vn -0.000000005702 -1.000000000000 -0.000000043338
vn -0.000000005702 -1.000000000000 -0.000000043338
vn -0.000000005702 -1.000000000000 -0.000000043338
vn -0.000000005702 -1.000000000000 -0.000000043338
vn -0.000000005702 -1.000000000000 -0.000000043338
vn -0.000000005702 -1.000000000000 -0.000000043338
vn -0.000000005702 -1.000000000000 -0.000000043338
vn -0.000000005702 -1.000000000000 -0.000000043338
vn -0.000000005702 -1.000000000000 -0.000000043338
vn -0.000000005702 -1.000000000000 -0.000000043338
vn -0.000000005702 -1.000000000000 -0.000000043338
vn -0.000000005702 -1.000000000000 -0.000000043338
vn -0.000000005702 -1.000000000000 -0.000000043338
vn -0.000000005702 -1.000000000000 -0.000000043338
vn -0.000000005702 -1.000000000000 -0.000000043338
vn -0.000000005702 -1.000000000000 -0.000000043338
vn -0.000000005702 -1.000000000000 -0.000000043338
vn -0.000000005702 -1.000000000000 -0.000000043338
vn -0.000000005702 -1.000000000000 -0.000000043338
vn -0.000000005702 -1.000000000000 -0.000000043338
vn -0.000000005702 -1.000000000000 -0.000000043338
vn -0.000000005702 -1.000000000000 -0.000000043338
vn -0.000000005702 -1.000000000000 -0.000000043338
vn -0.000000005702 -1.000000000000 -0.000000043338
vn -0.000000005702 -1.000000000000 -0.000000043338
vn 0.000000005702 1.000000000000 0.000000043338
vn 0.000000005702 1.000000000000 0.000000043338
vn 0.000000005702 1.000000000000 0.000000043338
vn 0.000000005702 1.000000000000 0.000000043338
vn 0.000000005702 1.000000000000 0.000000043338
vn 0.000000005702 1.000000000000 0.000000043338
vn 0.000000005702 1.000000000000 0.000000043338
vn 0.000000005702 1.000000000000 0.000000043338
vn 0.000000005702 1.000000000000 0.000000043338
vn 0.000000005702 1.000000000000 0.000000043338
vn 0.000000005702 1.000000000000 0.000000043338
vn 0.000000005702 1.000000000000 0.000000043338
vn 0.000000005702 1.000000000000 0.000000043338
vn 0.000000005702 1.000000000000 0.000000043338
vn 0.000000005702 1.000000000000 0.000000043338
vn 0.000000005702 1.000000000000 0.000000043338
vn 0.000000005702 1.000000000000 0.000000043338
vn 0.000000005702 1.000000000000 0.000000043338
vn 0.000000005702 1.000000000000 0.000000043338
vn 0.000000005702 1.000000000000 0.000000043338
vn 0.000000005702 1.000000000000 0.000000043338
vn 0.000000005702 1.000000000000 0.000000043338
vn 0.000000005702 1.000000000000 0.000000043338
vn 0.000000005702 1.000000000000 0.000000043338
vn 0.000000005702 1.000000000000 0.000000043338
vn 0.000000005702 1.000000000000 0.000000043338
vn 0.000000005702 1.000000000000 0.000000043338
vn 0.000000005702 1.000000000000 0.000000043338
vn 0.000000005702 1.000000000000 0.000000043338
vn 0.000000005702 1.000000000000 0.000000043338
vn 0.000000005702 1.000000000000 0.000000043338
vn 0.000000005702 1.000000000000 0.000000043338
vn 0.000000005702 1.000000000000 0.000000043338
vn 0.000000005702 1.000000000000 0.000000043338
vn 0.000000005702 1.000000000000 0.000000043338
vn 0.000000005702 1.000000000000 0.000000043338
vn 0.000000005702 1.000000000000 0.000000043338
vn 0.000000005702 1.000000000000 0.000000043338
vn 0.000000005702 1.000000000000 0.000000043338
vn 0.000000005702 1.000000000000 0.000000043338
vn 0.000000005702 1.000000000000 0.000000043338
vn 0.000000005702 1.000000000000 0.000000043338
vn 0.000000005702 1.000000000000 0.000000043338
vn 0.000000005702 1.000000000000 0.000000043338
vn 0.000000005702 1.000000000000 0.000000043338
vn 0.000000005702 1.000000000000 0.000000043338
vn 0.000000005702 1.000000000000 0.000000043338
vn 0.000000005702 1.000000000000 0.000000043338
vn 0.000000005702 1.000000000000 0.000000043338
vn 0.000000005702 1.000000000000 0.000000043338
vn 0.000000005702 1.000000000000 0.000000043338
vn 0.000000005702 1.000000000000 0.000000043338
vn 0.000000005702 1.000000000000 0.000000043338
vn 0.000000005702 1.000000000000 0.000000043338
vn 0.000000005702 1.000000000000 0.000000043338
vn 0.000000005702 1.000000000000 0.000000043338
vn 0.000000005702 1.000000000000 0.000000043338
vn 0.000000005702 1.000000000000 0.000000043338
vn 0.000000005702 1.000000000000 0.000000043338
vn 0.000000005702 1.000000000000 0.000000043338
vn 0.000000005702 1.000000000000 0.000000043338
vn 0.000000005702 1.000000000000 0.000000043338
vn 0.000000005702 1.000000000000 0.000000043338
vn 0.166120931506 -0.000000043683 0.986105382442
vn 0.480408608913 -0.000000040749 0.877044796944
vn 0.480408638716 -0.000000040749 0.877044796944
vn 0.480408638716 -0.000000040749 0.877044796944
vn 0.166120916605 -0.000000043683 0.986105382442
vn 0.166120931506 -0.000000043683 0.986105382442
vn 0.981923401356 -0.000000013802 0.189278677106
vn 0.991133689880 0.000000000107 -0.132868051529
vn 0.991133689880 0.000000000107 -0.132868051529
vn 0.991133689880 0.000000000107 -0.132868051529
vn 0.981923401356 -0.000000013802 0.189278677106
vn 0.981923401356 -0.000000013802 0.189278677106
vn 0.991133689880 0.000000000107 -0.132868051529
vn 0.897401571274 0.000000014004 -0.441214650869
vn 0.897401571274 0.000000014004 -0.441214650869
vn 0.897401571274 0.000000014004 -0.441214650869
vn 0.991133689880 0.000000000107 -0.132868051529
vn 0.991133689880 0.000000000107 -0.132868051529
vn 0.099875807762 0.000000042552 -0.994999885559
vn 0.099875822663 0.000000042552 -0.994999885559
vn 0.099875807762 0.000000042552 -0.994999885559
vn 0.099875807762 0.000000042552 -0.994999885559
vn 0.099875822663 0.000000042552 -0.994999885559
vn 0.099875807762 0.000000042552 -0.994999885559
vn -0.758362472057 0.000000032573 -0.651833057404
vn -0.923518776894 0.000000021888 -0.383553147316
vn -0.923518776894 0.000000021888 -0.383553206921
vn -0.923518776894 0.000000021888 -0.383553206921
vn -0.758362531662 0.000000032573 -0.651833057404
vn -0.758362472057 0.000000032573 -0.651833057404
vn -0.923518776894 0.000000021888 -0.383553147316
vn -0.950768411160 0.000000018852 -0.309902369976
vn -0.950768411160 0.000000018852 -0.309902340174
vn -0.950768411160 0.000000018852 -0.309902340174
vn -0.923518776894 0.000000021888 -0.383553206921
vn -0.923518776894 0.000000021888 -0.383553147316
vn -0.950768411160 0.000000018852 -0.309902369976
vn -0.851006031036 0.000000027611 -0.525155901909
vn -0.851006031036 0.000000027611 -0.525155901909
vn -0.851006031036 0.000000027611 -0.525155901909
vn -0.950768411160 0.000000018852 -0.309902340174
vn -0.950768411160 0.000000018852 -0.309902369976
vn 0.687302172184 0.000000027561 -0.726371526718
vn 0.853444755077 0.000000017721 -0.521183252335
vn 0.853444695473 0.000000017721 -0.521183311939
vn 0.853444695473 0.000000017721 -0.521183311939
vn 0.687302172184 0.000000027561 -0.726371526718
vn 0.687302172184 0.000000027561 -0.726371526718
vn 0.853444755077 0.000000017721 -0.521183252335
vn 0.788759231567 0.000000022143 -0.614702165127
vn 0.788759291172 0.000000022143 -0.614702165127
vn 0.788759291172 0.000000022143 -0.614702165127
vn 0.853444695473 0.000000017721 -0.521183311939
vn 0.853444755077 0.000000017721 -0.521183252335
vn 0.788759231567 0.000000022143 -0.614702165127
vn 0.255760431290 0.000000040438 -0.966740131378
vn 0.255760461092 0.000000040438 -0.966740190983
vn 0.255760461092 0.000000040438 -0.966740190983
vn 0.788759291172 0.000000022143 -0.614702165127
vn 0.788759231567 0.000000022143 -0.614702165127
vn 0.255760431290 0.000000040438 -0.966740131378
vn -0.381647050381 0.000000042234 -0.924308121204
vn -0.381647109985 0.000000042234 -0.924308121204
vn -0.381647109985 0.000000042234 -0.924308121204
vn 0.255760461092 0.000000040438 -0.966740190983
vn 0.255760431290 0.000000040438 -0.966740131378
vn -0.381647050381 0.000000042234 -0.924308121204
vn -0.696277558804 0.000000035077 -0.717772603035
vn -0.696277558804 0.000000035077 -0.717772603035
vn -0.696277558804 0.000000035077 -0.717772603035
vn -0.381647109985 0.000000042234 -0.924308121204
vn -0.381647050381 0.000000042234 -0.924308121204
vn -0.950769543648 -0.000000008009 0.309898853302
vn -0.883746206760 -0.000000015242 0.467966437340
vn -0.883746206760 -0.000000015242 0.467966407537
vn -0.883746206760 -0.000000015242 0.467966407537
vn -0.950769543648 -0.000000008009 0.309898853302
vn -0.950769543648 -0.000000008009 0.309898853302
vn -0.883746206760 -0.000000015242 0.467966437340
vn -0.513809084892 -0.000000034250 0.857904553413
vn -0.513809084892 -0.000000034250 0.857904553413
vn -0.513809084892 -0.000000034250 0.857904553413
vn -0.883746206760 -0.000000015242 0.467966407537
vn -0.883746206760 -0.000000015242 0.467966437340
vn -0.513809084892 -0.000000034250 0.857904553413
vn 0.166120931506 -0.000000043683 0.986105382442
vn 0.166120916605 -0.000000043683 0.986105382442
vn 0.166120916605 -0.000000043683 0.986105382442
vn -0.513809084892 -0.000000034250 0.857904553413
vn -0.513809084892 -0.000000034250 0.857904553413
vn 0.738469719887 0.000000025012 -0.674286663532
vn 0.868816375732 0.000000016504 -0.495134413242
vn 0.868816375732 0.000000016504 -0.495134443045
vn 0.868816375732 0.000000016504 -0.495134443045
vn 0.738469719887 0.000000025012 -0.674286663532
vn 0.738469719887 0.000000025012 -0.674286663532
vn 0.868816375732 0.000000016504 -0.495134413242
vn 0.956516504288 0.000000007187 -0.291678190231
vn 0.956516504288 0.000000007187 -0.291678190231
vn 0.956516504288 0.000000007187 -0.291678190231
vn 0.868816375732 0.000000016504 -0.495134443045
vn 0.868816375732 0.000000016504 -0.495134413242
vn 0.721191525459 -0.000000034134 0.692735731602
vn 0.721191525459 -0.000000034134 0.692735731602
vn 0.721191525459 -0.000000034134 0.692735731602
vn 0.721191525459 -0.000000034134 0.692735731602
vn 0.721191525459 -0.000000034134 0.692735731602
vn 0.721191525459 -0.000000034134 0.692735731602
vn -0.185535401106 -0.000000041528 0.982637524605
vn -0.185535430908 -0.000000041528 0.982637584209
vn -0.185535401106 -0.000000041528 0.982637524605
vn -0.185535401106 -0.000000041528 0.982637524605
vn -0.185535430908 -0.000000041528 0.982637584209
vn -0.185535401106 -0.000000041528 0.982637524605
vn -0.991455793381 0.000000000000 0.130442976952
vn -0.980400681496 0.000000014128 -0.197013750672
vn -0.980400681496 0.000000014128 -0.197013780475
vn -0.980400681496 0.000000014128 -0.197013780475
vn -0.991455793381 0.000000000000 0.130442976952
vn -0.991455793381 0.000000000000 0.130442976952
vn -0.980400681496 0.000000014128 -0.197013750672
vn -0.864099502563 0.000000026740 -0.503321051598
vn -0.864099502563 0.000000026740 -0.503321111202
vn -0.864099502563 0.000000026740 -0.503321111202
vn -0.980400681496 0.000000014128 -0.197013780475
vn -0.980400681496 0.000000014128 -0.197013750672
# 252 vertex normals

vt 0.520649909973 0.521923959255 0.000000000000
vt 0.533468902111 0.521924078465 0.000000000000
vt 0.533469021320 0.559009492397 0.000000000000
vt 0.520649969578 0.559009730816 0.000000000000
vt 0.621628403664 0.521923899651 0.000000000000
vt 0.621628403664 0.559009075165 0.000000000000
vt 0.631719946861 0.521923899651 0.000000000000
vt 0.631719946861 0.559009134769 0.000000000000
vt 0.784529447556 0.449808627367 0.000000000000
vt 0.784529089928 0.486897557974 0.000000000000
vt 0.791698873043 0.449808806181 0.000000000000
vt 0.791698694229 0.486897379160 0.000000000000
vt 0.804631829262 0.449809014797 0.000000000000
vt 0.804631769657 0.486897140741 0.000000000000
vt 0.809528887272 0.449809372425 0.000000000000
vt 0.809528946877 0.486896842718 0.000000000000
vt 0.815325677395 0.449809700251 0.000000000000
vt 0.815325796604 0.486896544695 0.000000000000
vt 0.831968843937 0.449810147285 0.000000000000
vt 0.831968784332 0.486896187067 0.000000000000
vt 0.839983642101 0.449810653925 0.000000000000
vt 0.839983403683 0.486895889044 0.000000000000
vt 0.861502289772 0.449811369181 0.000000000000
vt 0.861501932144 0.486895799637 0.000000000000
vt 0.875166654587 0.449811935425 0.000000000000
vt 0.875166356564 0.486895710230 0.000000000000
vt 0.963399052620 0.449812889099 0.000000000000
vt 0.963399052620 0.486896306276 0.000000000000
vt 0.973163604736 0.449812889099 0.000000000000
vt 0.973164141178 0.486896157265 0.000000000000
vt 0.391633093357 0.094691246748 0.000000000000
vt 0.399004161358 0.094691261649 0.000000000000
vt 0.399003624916 0.131776928902 0.000000000000
vt 0.391632646322 0.131776839495 0.000000000000
vt 0.351099789143 0.094691261649 0.000000000000
vt 0.351099610329 0.131776541471 0.000000000000
vt 0.357401043177 0.094691239297 0.000000000000
vt 0.357400864363 0.131776571274 0.000000000000
vt 0.367759734392 0.094691216946 0.000000000000
vt 0.367759495974 0.131776630878 0.000000000000
vt 0.378303885460 0.094691202044 0.000000000000
vt 0.378303557634 0.131776705384 0.000000000000
vt 0.013841025531 0.970217823982 0.000000000000
vt 0.013561734930 0.948732376099 0.000000000000
vt 0.017621085048 0.941828370094 0.000000000000
vt 0.033623237163 0.937180876732 0.000000000000
vt 0.037613019347 0.932976663113 0.000000000000
vt 0.033439606428 0.930408895016 0.000000000000
vt 0.020527226850 0.929411947727 0.000000000000
vt 0.015082644299 0.924745917320 0.000000000000
vt 0.018217284232 0.893609344959 0.000000000000
vt 0.027286969125 0.889163255692 0.000000000000
vt 0.113981299102 0.905825495720 0.000000000000
vt 0.120148748159 0.917051732540 0.000000000000
vt 0.115119703114 0.946737468243 0.000000000000
vt 0.107386849821 0.952707469463 0.000000000000
vt 0.059113316238 0.938792824745 0.000000000000
vt 0.073039762676 0.934558510780 0.000000000000
vt 0.078491099179 0.929595768452 0.000000000000
vt 0.066956378520 0.922896921635 0.000000000000
vt 0.056486904621 0.924270212650 0.000000000000
vt 0.054562188685 0.934434115887 0.000000000000
vt 0.023369658738 0.980011701584 0.000000000000
vt 0.408494830132 0.413750290871 0.000000000000
vt 0.418030798435 0.423536717892 0.000000000000
vt 0.502111732960 0.396253198385 0.000000000000
vt 0.453801572323 0.382349073887 0.000000000000
vt 0.449246883392 0.377993702888 0.000000000000
vt 0.451173126698 0.367837548256 0.000000000000
vt 0.461650609970 0.366465181112 0.000000000000
vt 0.473194062710 0.373159080744 0.000000000000
vt 0.467738628387 0.378118067980 0.000000000000
vt 0.509850323200 0.390287697315 0.000000000000
vt 0.514883279800 0.360624432564 0.000000000000
vt 0.508711159229 0.349406778812 0.000000000000
vt 0.421950936317 0.332757204771 0.000000000000
vt 0.412874519825 0.337199926376 0.000000000000
vt 0.409737467766 0.368312895298 0.000000000000
vt 0.415186047554 0.372975349426 0.000000000000
vt 0.428108394146 0.373971551657 0.000000000000
vt 0.432285010815 0.376537352800 0.000000000000
vt 0.428292155266 0.380738347769 0.000000000000
vt 0.412277877331 0.385382324457 0.000000000000
vt 0.408215403557 0.392281174660 0.000000000000
vt 0.753186941147 0.449808120728 0.000000000000
vt 0.753186285496 0.486897200346 0.000000000000
vt 0.490498572588 0.521923780441 0.000000000000
vt 0.490498691797 0.559009850025 0.000000000000
vt 0.336561769247 0.094691261649 0.000000000000
vt 0.336561560631 0.131776481867 0.000000000000
# 90 texture coords

g Shape022
f 20/50/1 19/51/2 9/52/3 
f 20/50/4 9/52/5 8/53/6 
f 21/49/7 20/50/8 8/53/9 
f 18/48/10 21/49/11 8/53/12 
f 3/56/13 5/57/14 1/58/15 
f 3/56/16 1/58/17 6/59/18 
f 2/55/19 3/56/20 6/59/21 
f 7/54/22 2/55/23 6/59/24 
f 8/53/25 7/54/26 6/59/27 
f 8/53/28 6/59/29 10/60/30 
f 8/53/31 10/60/32 11/61/33 
f 18/48/34 8/53/35 11/61/36 
f 17/47/37 18/48/38 11/61/39 
f 17/47/40 11/61/41 16/62/42 
f 17/47/43 16/62/44 5/57/45 
f 17/47/46 5/57/47 3/56/48 
f 15/46/49 17/47/50 3/56/51 
f 14/45/52 15/46/53 3/56/54 
f 13/44/55 14/45/56 3/56/57 
f 12/43/58 13/44/59 3/56/60 
f 12/43/61 3/56/62 4/63/63 
f 33/64/64 25/65/65 24/66/66 
f 22/72/67 26/67/68 24/66/69 
f 27/71/70 22/72/71 24/66/72 
f 27/71/73 24/66/74 23/73/75 
f 27/71/76 23/73/77 28/74/78 
f 27/71/79 28/74/80 29/75/81 
f 31/70/82 27/71/83 29/75/84 
f 32/69/85 31/70/86 29/75/87 
f 30/76/88 40/77/89 41/78/90 
f 29/75/91 30/76/92 41/78/93 
f 29/75/94 41/78/95 42/79/96 
f 29/75/97 42/79/98 39/80/99 
f 32/69/100 29/75/101 39/80/102 
f 32/69/103 39/80/104 38/81/105 
f 37/68/106 32/69/107 38/81/108 
f 26/67/109 37/68/110 38/81/111 
f 24/66/112 26/67/113 38/81/114 
f 24/66/115 38/81/116 36/82/117 
f 24/66/118 36/82/119 35/83/120 
f 24/66/121 35/83/122 34/84/123 
f 33/64/124 24/66/125 34/84/126 
f 7/1/127 8/2/128 29/3/129 
f 29/3/130 28/4/131 7/1/132 
f 8/2/133 9/5/134 30/6/135 
f 30/6/136 29/3/137 8/2/138 
f 9/5/139 19/7/140 40/8/141 
f 40/8/142 30/6/143 9/5/144 
f 19/85/145 20/9/146 41/10/147 
f 41/10/148 40/86/149 19/85/150 
f 20/9/151 21/11/152 42/12/153 
f 42/12/154 41/10/155 20/9/156 
f 21/11/157 18/13/158 39/14/159 
f 39/14/160 42/12/161 21/11/162 
f 18/13/163 17/15/164 38/16/165 
f 38/16/166 39/14/167 18/13/168 
f 17/15/169 15/17/170 36/18/171 
f 36/18/172 38/16/173 17/15/174 
f 15/17/175 14/19/176 35/20/177 
f 35/20/178 36/18/179 15/17/180 
f 14/19/181 13/21/182 34/22/183 
f 34/22/184 35/20/185 14/19/186 
f 13/21/187 12/23/188 33/24/189 
f 33/24/190 34/22/191 13/21/192 
f 12/23/193 4/25/194 25/26/195 
f 25/26/196 33/24/197 12/23/198 
f 4/25/199 3/27/200 24/28/201 
f 24/28/202 25/26/203 4/25/204 
f 3/27/205 2/29/206 23/30/207 
f 23/30/208 24/28/209 3/27/210 
f 2/87/211 7/1/212 28/4/213 
f 28/4/214 23/88/215 2/87/216 
f 6/31/217 1/32/218 22/33/219 
f 22/33/220 27/34/221 6/31/222 
f 1/89/223 5/35/224 26/36/225 
f 26/36/226 22/90/227 1/89/228 
f 5/35/229 16/37/230 37/38/231 
f 37/38/232 26/36/233 5/35/234 
f 16/37/235 11/39/236 32/40/237 
f 32/40/238 37/38/239 16/37/240 
f 11/39/241 10/41/242 31/42/243 
f 31/42/244 32/40/245 11/39/246 
f 10/41/247 6/31/248 27/34/249 
f 27/34/250 31/42/251 10/41/252 
# 84 faces

