# 3ds Max Wavefront OBJ Exporter v0.97b - (c)2007 guruware
# File Created: 28.09.2012 17:23:49

#
# object Shape019
#

v  0.203642368317 -0.091592818499 0.248631700873
v  -0.213096857071 -0.091592818499 0.241994664073
v  -0.232546806335 -0.091592811048 0.154497444630
v  -0.195044040680 -0.091592811048 0.082272440195
v  -0.051896810532 -0.091592811048 0.078516721725
v  0.232546567917 -0.091592811048 0.183641016483
v  0.044438838959 -0.091592803597 -0.050760865211
v  -0.187286138535 -0.091592803597 -0.085098803043
v  -0.215861320496 -0.091592796147 -0.199417948723
v  -0.190883159637 -0.091592796147 -0.233313024044
v  0.188283920288 -0.091592796147 -0.248631656170
v  0.062407493591 -0.091592803597 -0.064176321030
v  0.179955959320 -0.091592803597 -0.058698356152
v  0.214723110199 -0.091592796147 -0.223805665970
v  0.210678339005 -0.091592803597 -0.091648399830
v  0.203642368317 0.091592736542 0.248631715775
v  -0.213096857071 0.091592736542 0.241994678974
v  -0.232546806335 0.091592736542 0.154497444630
v  -0.195044040680 0.091592736542 0.082272440195
v  -0.051896810532 0.091592736542 0.078516721725
v  0.232546567917 0.091592736542 0.183641016483
v  0.044438838959 0.091592736542 -0.050760865211
v  -0.187286138535 0.091592751443 -0.085098803043
v  -0.215861320496 0.091592751443 -0.199417948723
v  -0.190883159637 0.091592751443 -0.233313024044
v  0.188283920288 0.091592751443 -0.248631656170
v  0.062407493591 0.091592736542 -0.064176321030
v  0.179955959320 0.091592736542 -0.058698356152
v  0.214723110199 0.091592751443 -0.223805665970
v  0.210678339005 0.091592751443 -0.091648399830
# 30 vertices

vn 0.000000000000 -1.000000000000 -0.000000043711
vn 0.000000000000 -1.000000000000 -0.000000043711
vn 0.000000000000 -1.000000000000 -0.000000043711
vn 0.000000000000 -1.000000000000 -0.000000043711
vn 0.000000000000 -1.000000000000 -0.000000043711
vn 0.000000000000 -1.000000000000 -0.000000043711
vn 0.000000000000 -1.000000000000 -0.000000043711
vn 0.000000000000 -1.000000000000 -0.000000043711
vn 0.000000000000 -1.000000000000 -0.000000043711
vn 0.000000000000 -1.000000000000 -0.000000043711
vn 0.000000000000 -1.000000000000 -0.000000043711
vn 0.000000000000 -1.000000000000 -0.000000043711
vn 0.000000000000 -1.000000000000 -0.000000043711
vn 0.000000000000 -1.000000000000 -0.000000043711
vn 0.000000000000 -1.000000000000 -0.000000043711
vn 0.000000000000 -1.000000000000 -0.000000043711
vn 0.000000000000 -1.000000000000 -0.000000043711
vn 0.000000000000 -1.000000000000 -0.000000043711
vn 0.000000000000 -1.000000000000 -0.000000043711
vn 0.000000000000 -1.000000000000 -0.000000043711
vn 0.000000000000 -1.000000000000 -0.000000043711
vn 0.000000000000 -1.000000000000 -0.000000043711
vn 0.000000000000 -1.000000000000 -0.000000043711
vn 0.000000000000 -1.000000000000 -0.000000043711
vn 0.000000000000 -1.000000000000 -0.000000043711
vn 0.000000000000 -1.000000000000 -0.000000043711
vn 0.000000000000 -1.000000000000 -0.000000043711
vn 0.000000000000 -1.000000000000 -0.000000043711
vn 0.000000000000 -1.000000000000 -0.000000043711
vn 0.000000000000 -1.000000000000 -0.000000043711
vn 0.000000000000 -1.000000000000 -0.000000043711
vn 0.000000000000 -1.000000000000 -0.000000043711
vn 0.000000000000 -1.000000000000 -0.000000043711
vn 0.000000000000 -1.000000000000 -0.000000043711
vn 0.000000000000 -1.000000000000 -0.000000043711
vn 0.000000000000 -1.000000000000 -0.000000043711
vn 0.000000000000 -1.000000000000 -0.000000043711
vn 0.000000000000 -1.000000000000 -0.000000043711
vn 0.000000000000 -1.000000000000 -0.000000043711
vn 0.000000000000 1.000000000000 0.000000043711
vn 0.000000000000 1.000000000000 0.000000043711
vn 0.000000000000 1.000000000000 0.000000043711
vn 0.000000000000 1.000000000000 0.000000043711
vn 0.000000000000 1.000000000000 0.000000043711
vn 0.000000000000 1.000000000000 0.000000043711
vn 0.000000000000 1.000000000000 0.000000043711
vn 0.000000000000 1.000000000000 0.000000043711
vn 0.000000000000 1.000000000000 0.000000043711
vn 0.000000000000 1.000000000000 0.000000043711
vn 0.000000000000 1.000000000000 0.000000043711
vn 0.000000000000 1.000000000000 0.000000043711
vn 0.000000000000 1.000000000000 0.000000043711
vn 0.000000000000 1.000000000000 0.000000043711
vn 0.000000000000 1.000000000000 0.000000043711
vn 0.000000000000 1.000000000000 0.000000043711
vn 0.000000000000 1.000000000000 0.000000043711
vn 0.000000000000 1.000000000000 0.000000043711
vn 0.000000000000 1.000000000000 0.000000043711
vn 0.000000000000 1.000000000000 0.000000043711
vn 0.000000000000 1.000000000000 0.000000043711
vn 0.000000000000 1.000000000000 0.000000043711
vn 0.000000000000 1.000000000000 0.000000043711
vn 0.000000000000 1.000000000000 0.000000043711
vn 0.000000000000 1.000000000000 0.000000043711
vn 0.000000000000 1.000000000000 0.000000043711
vn 0.000000000000 1.000000000000 0.000000043711
vn 0.000000000000 1.000000000000 0.000000043711
vn 0.000000000000 1.000000000000 0.000000043711
vn 0.000000000000 1.000000000000 0.000000043711
vn 0.000000000000 1.000000000000 0.000000043711
vn 0.000000000000 1.000000000000 0.000000043711
vn 0.000000000000 1.000000000000 0.000000043711
vn 0.000000000000 1.000000000000 0.000000043711
vn 0.000000000000 1.000000000000 0.000000043711
vn 0.000000000000 1.000000000000 0.000000043711
vn 0.000000000000 1.000000000000 0.000000043711
vn 0.000000000000 1.000000000000 0.000000043711
vn 0.000000000000 1.000000000000 0.000000043711
vn 0.913710057735 -0.000000017763 0.406366795301
vn 0.913710057735 -0.000000017763 0.406366795301
vn 0.913710057735 -0.000000017763 0.406366795301
vn 0.913710057735 -0.000000017763 0.406366795301
vn 0.913710057735 -0.000000017763 0.406366795301
vn 0.913710057735 -0.000000017763 0.406366795301
vn 0.779916405678 0.000000027358 -0.625883638859
vn 0.779916465282 0.000000027358 -0.625883638859
vn 0.779916405678 0.000000027358 -0.625883638859
vn 0.779916405678 0.000000027358 -0.625883638859
vn 0.779916465282 0.000000027358 -0.625883638859
vn 0.779916405678 0.000000027358 -0.625883638859
vn 0.598256587982 -0.000000035026 0.801304578781
vn 0.293014109135 -0.000000041793 0.956108093262
vn 0.293014109135 -0.000000041793 0.956108093262
vn 0.293014109135 -0.000000041793 0.956108093262
vn 0.598256587982 -0.000000035026 0.801304578781
vn 0.598256587982 -0.000000035026 0.801304578781
vn 0.293014109135 -0.000000041793 0.956108093262
vn -0.046551235020 -0.000000043664 0.998915910721
vn -0.046551235020 -0.000000043664 0.998915910721
vn -0.046551235020 -0.000000043664 0.998915910721
vn 0.293014109135 -0.000000041793 0.956108093262
vn 0.293014109135 -0.000000041793 0.956108093262
vn 0.731398344040 -0.000000029809 0.681950509548
vn 0.924714624882 -0.000000016639 0.380661129951
vn 0.924714624882 -0.000000016639 0.380661159754
vn 0.924714624882 -0.000000016639 0.380661159754
vn 0.731398344040 -0.000000029809 0.681950449944
vn 0.731398344040 -0.000000029809 0.681950509548
vn 0.924714624882 -0.000000016639 0.380661129951
vn 0.999531984329 -0.000000001337 0.030591417104
vn 0.999531984329 -0.000000001337 0.030591420829
vn 0.999531984329 -0.000000001337 0.030591420829
vn 0.924714624882 -0.000000016639 0.380661159754
vn 0.924714624882 -0.000000016639 0.380661129951
vn 0.684516906738 0.000000031865 -0.728996992111
vn 0.684516906738 0.000000031865 -0.728996992111
vn 0.684516906738 0.000000031865 -0.728996992111
vn 0.684516906738 0.000000031865 -0.728996992111
vn 0.684516906738 0.000000031865 -0.728996992111
vn 0.684516906738 0.000000031865 -0.728996992111
vn -0.040367808193 0.000000043676 -0.999184906483
vn -0.040367811918 0.000000043676 -0.999184906483
vn -0.040367808193 0.000000043676 -0.999184906483
vn -0.040367808193 0.000000043676 -0.999184906483
vn -0.040367811918 0.000000043676 -0.999184906483
vn -0.040367808193 0.000000043676 -0.999184906483
vn -0.805023610592 0.000000025931 -0.593242764473
vn -0.805023550987 0.000000025931 -0.593242824078
vn -0.805023610592 0.000000025931 -0.593242764473
vn -0.805023610592 0.000000025931 -0.593242764473
vn -0.805023550987 0.000000025931 -0.593242824078
vn -0.805023610592 0.000000025931 -0.593242764473
vn -0.970151722431 -0.000000010600 0.242498844862
vn -0.892423212528 -0.000000019723 0.451199263334
vn -0.892423272133 -0.000000019723 0.451199233532
vn -0.892423272133 -0.000000019723 0.451199233532
vn -0.970151722431 -0.000000010600 0.242498844862
vn -0.970151722431 -0.000000010600 0.242498844862
vn -0.892423212528 -0.000000019723 0.451199263334
vn -0.770432770252 -0.000000027867 0.637521266937
vn -0.770432770252 -0.000000027867 0.637521266937
vn -0.770432770252 -0.000000027867 0.637521266937
vn -0.892423272133 -0.000000019723 0.451199233532
vn -0.892423212528 -0.000000019723 0.451199263334
vn -0.026227731258 0.000000043696 -0.999656021595
vn -0.026227729395 0.000000043696 -0.999656021595
vn -0.026227731258 0.000000043696 -0.999656021595
vn -0.026227731258 0.000000043696 -0.999656021595
vn -0.026227729395 0.000000043696 -0.999656021595
vn -0.026227731258 0.000000043696 -0.999656021595
vn -0.887489438057 0.000000020143 -0.460828095675
vn -0.991549432278 0.000000005671 -0.129729509354
vn -0.991549432278 0.000000005671 -0.129729494452
vn -0.991549432278 0.000000005671 -0.129729494452
vn -0.887489438057 0.000000020143 -0.460828036070
vn -0.887489438057 0.000000020143 -0.460828095675
vn -0.991549432278 0.000000005671 -0.129729509354
vn -0.976172566414 -0.000000009485 0.216995567083
vn -0.976172566414 -0.000000009485 0.216995567083
vn -0.976172566414 -0.000000009485 0.216995567083
vn -0.991549432278 0.000000005671 -0.129729494452
vn -0.991549432278 0.000000005671 -0.129729509354
vn -0.015924097970 -0.000000043706 0.999873220921
vn -0.015924097970 -0.000000043706 0.999873220921
vn -0.015924097970 -0.000000043706 0.999873220921
vn -0.015924097970 -0.000000043706 0.999873220921
vn -0.015924097970 -0.000000043706 0.999873220921
vn -0.015924097970 -0.000000043706 0.999873220921
# 168 vertex normals

vt 0.677184998989 0.018077604473 0.000000000000
vt 0.692008137703 0.018077502027 0.000000000000
vt 0.692008733749 0.056254312396 0.000000000000
vt 0.677185177803 0.056254528463 0.000000000000
vt 0.544262528419 0.586116969585 0.000000000000
vt 0.544262409210 0.624295115471 0.000000000000
vt 0.548935949802 0.586116850376 0.000000000000
vt 0.548935890198 0.624295294285 0.000000000000
vt 0.573461353779 0.586116790771 0.000000000000
vt 0.573461234570 0.624295473099 0.000000000000
vt 0.582850635052 0.586116671562 0.000000000000
vt 0.582850635052 0.624295711517 0.000000000000
vt 0.610407531261 0.586116492748 0.000000000000
vt 0.610407650471 0.624295771122 0.000000000000
vt 0.617966532707 0.586116373539 0.000000000000
vt 0.617966651917 0.624295771122 0.000000000000
vt 0.697056770325 0.586116135120 0.000000000000
vt 0.697057068348 0.624295592308 0.000000000000
vt 0.705832004547 0.586116015911 0.000000000000
vt 0.705832481384 0.624295473099 0.000000000000
vt 0.480572074652 0.018074875697 0.000000000000
vt 0.480571568012 0.056256003678 0.000000000000
vt 0.524835526943 0.018075538799 0.000000000000
vt 0.524835228920 0.056256130338 0.000000000000
vt 0.554681122303 0.018076146021 0.000000000000
vt 0.554680883884 0.056255873293 0.000000000000
vt 0.571642577648 0.018076736480 0.000000000000
vt 0.571642339230 0.056255444884 0.000000000000
vt 0.590323030949 0.018077371642 0.000000000000
vt 0.590322911739 0.056254938245 0.000000000000
vt 0.097712382674 0.699811339378 0.000000000000
vt 0.082648620009 0.692016541958 0.000000000000
vt 0.081823885441 0.662183940411 0.000000000000
vt 0.047763451934 0.690449297428 0.000000000000
vt 0.023945834488 0.696438431740 0.000000000000
vt 0.016874141991 0.691242635250 0.000000000000
vt 0.013570018113 0.612222135067 0.000000000000
vt 0.018736429513 0.606704473495 0.000000000000
vt 0.046281486750 0.607508659363 0.000000000000
vt 0.053157884628 0.613901972771 0.000000000000
vt 0.052050694823 0.638402760029 0.000000000000
vt 0.054852053523 0.642143964767 0.000000000000
vt 0.103650003672 0.602870702744 0.000000000000
vt 0.117203488946 0.608875751495 0.000000000000
vt 0.115942344069 0.695732057095 0.000000000000
vt 0.258983075619 0.307565033436 0.000000000000
vt 0.277004510164 0.312484711409 0.000000000000
vt 0.274239599705 0.399306535721 0.000000000000
vt 0.260422348976 0.404677093029 0.000000000000
vt 0.213496670127 0.363184958696 0.000000000000
vt 0.210525065660 0.366792201996 0.000000000000
vt 0.210495799780 0.391317814589 0.000000000000
vt 0.203330606222 0.397385686636 0.000000000000
vt 0.175778046250 0.396912664175 0.000000000000
vt 0.170872911811 0.391161561012 0.000000000000
vt 0.177834764123 0.312379449606 0.000000000000
vt 0.185139536858 0.307516843081 0.000000000000
vt 0.208653986454 0.314603120089 0.000000000000
vt 0.241368010640 0.344416290522 0.000000000000
vt 0.243574216962 0.314653605223 0.000000000000
vt 0.481624960899 0.586116731167 0.000000000000
vt 0.481624841690 0.624294757843 0.000000000000
vt 0.456011503935 0.018074387684 0.000000000000
vt 0.456010729074 0.056255728006 0.000000000000
# 64 texture coords

g Shape019
f 11/37/1 14/38/2 15/39/3 
f 11/37/4 15/39/5 13/40/6 
f 11/37/7 13/40/8 12/41/9 
f 11/37/10 12/41/11 7/42/12 
f 10/36/13 11/37/14 7/42/15 
f 9/35/16 10/36/17 7/42/18 
f 8/34/19 9/35/20 7/42/21 
f 5/33/22 8/34/23 7/42/24 
f 5/33/25 7/42/26 6/43/27 
f 5/33/28 6/43/29 1/44/30 
f 4/32/31 5/33/32 1/44/33 
f 3/31/34 4/32/35 1/44/36 
f 3/31/37 1/44/38 2/45/39 
f 18/46/40 17/47/41 16/48/42 
f 30/53/43 29/54/44 26/55/45 
f 28/52/46 30/53/47 26/55/48 
f 27/51/49 28/52/50 26/55/51 
f 22/50/52 27/51/53 26/55/54 
f 22/50/55 26/55/56 25/56/57 
f 22/50/58 25/56/59 24/57/60 
f 22/50/61 24/57/62 23/58/63 
f 22/50/64 23/58/65 20/59/66 
f 21/49/67 22/50/68 20/59/69 
f 16/48/70 21/49/71 20/59/72 
f 16/48/73 20/59/74 19/60/75 
f 18/46/76 16/48/77 19/60/78 
f 1/1/79 6/2/80 21/3/81 
f 21/3/82 16/4/83 1/1/84 
f 6/61/85 7/5/86 22/6/87 
f 22/6/88 21/62/89 6/61/90 
f 7/5/91 12/7/92 27/8/93 
f 27/8/94 22/6/95 7/5/96 
f 12/7/97 13/9/98 28/10/99 
f 28/10/100 27/8/101 12/7/102 
f 13/9/103 15/11/104 30/12/105 
f 30/12/106 28/10/107 13/9/108 
f 15/11/109 14/13/110 29/14/111 
f 29/14/112 30/12/113 15/11/114 
f 14/13/115 11/15/116 26/16/117 
f 26/16/118 29/14/119 14/13/120 
f 11/15/121 10/17/122 25/18/123 
f 25/18/124 26/16/125 11/15/126 
f 10/17/127 9/19/128 24/20/129 
f 24/20/130 25/18/131 10/17/132 
f 9/63/133 8/21/134 23/22/135 
f 23/22/136 24/64/137 9/63/138 
f 8/21/139 5/23/140 20/24/141 
f 20/24/142 23/22/143 8/21/144 
f 5/23/145 4/25/146 19/26/147 
f 19/26/148 20/24/149 5/23/150 
f 4/25/151 3/27/152 18/28/153 
f 18/28/154 19/26/155 4/25/156 
f 3/27/157 2/29/158 17/30/159 
f 17/30/160 18/28/161 3/27/162 
f 2/29/163 1/1/164 16/4/165 
f 16/4/166 17/30/167 2/29/168 
# 56 faces

