# 3ds Max Wavefront OBJ Exporter v0.97b - (c)2007 guruware
# File Created: 30.06.2012 00:10:05

#
# object Branch_Big_Stump008
#

v  1.146119117737 -0.013648033142 0.097387172282
v  0.903365910053 -0.279894053936 0.647435784340
v  -0.545878052711 -0.085213243961 1.054366230965
v  -0.811553359032 -0.648752391338 0.630206704140
v  -0.945282161236 -0.230926454067 -0.429744660854
v  -0.413858830929 -1.197605848312 -0.507196247578
v  0.519747018814 -0.254812180996 1.025457859039
v  -0.000000031590 -0.879874765873 1.052983522415
v  -1.003932714462 -0.459912359715 0.140979707241
v  -0.000000410676 -1.048426389694 -0.672513782978
v  0.519746541977 -0.429852902889 -0.766470134258
v  0.903365552425 -0.381306111813 -0.390740513802
v  0.736577630043 -1.605837345123 0.252916842699
v  0.501949608326 -1.557030439377 0.752560198307
v  -0.000000031590 -1.534690618515 0.981258392334
v  -0.503617942333 -1.557258844376 0.750222623348
v  -0.734338462353 -1.605837106705 0.252916902304
v  -0.494238674641 -1.655182361603 -0.252242267132
v  -0.000000331700 -1.676983594894 -0.475424885750
v  0.501949250698 -1.654643774033 -0.246726930141
v  0.252386063337 -5.329204559326 1.134406685829
v  -0.186327800155 -5.254489898682 1.329215049744
v  -0.627342879772 -5.234574317932 1.121246576309
v  -0.723819255829 -5.272230625153 0.681762218475
v  -0.187250584364 -5.386833667755 0.271716386080
v  0.355406761169 -5.387934684753 0.697755932808
v  -0.471205085516 -9.823726654053 2.238306999207
v  -0.848660707474 -9.699484825134 2.401144027710
v  -1.231028437614 -9.639835357666 2.210528850555
v  -1.315584659576 -9.674160957336 1.847775816917
v  -0.855154633522 -9.853650093079 1.497876524925
v  -0.383408993483 -9.899421691895 1.881705164909
v  -1.392500519753 -13.019952774048 3.282179832458
v  -1.719567656517 -12.852128982544 3.418521404266
v  -2.065020084381 -12.782840728760 3.242521762848
v  -2.158585071564 -12.859199523926 2.943513870239
v  -1.766073107719 -13.107621192932 2.643834590912
v  -1.333960533142 -13.151093482971 2.992316961288
v  -2.535592794418 -16.200584411621 4.355766296387
v  -2.573480367661 -16.054754257202 4.587892532349
v  -2.858880519867 -15.874764442444 4.703882217407
v  -3.171534776688 -15.804253578186 4.543461322784
v  -3.269233703613 -15.893261909485 4.301330566406
v  -2.931154966354 -16.160377502441 4.041643142700
v  -2.905090570450 -16.073461532593 4.468881130219
# 45 vertices

vn 0.850315272808 0.466343313456 0.243901312351
vn 0.689916431904 0.705753445625 0.161019712687
vn 0.980570852757 -0.005904702470 0.196076318622
vn 0.980570852757 -0.005904702470 0.196076318622
vn 0.968759298325 -0.000000271072 0.248002946377
vn 0.850315272808 0.466343313456 0.243901312351
vn 0.850315272808 0.466343313456 0.243901312351
vn 0.566104233265 0.784248530865 0.253929674625
vn 0.689916431904 0.705753445625 0.161019712687
vn -0.006807797588 0.960304200649 0.278871774673
vn 0.005082568154 0.994097888470 0.108367890120
vn 0.689916431904 0.705753445625 0.161019712687
vn 0.689916431904 0.705753445625 0.161019712687
vn 0.566104233265 0.784248530865 0.253929674625
vn -0.006807797588 0.960304200649 0.278871774673
vn -0.006807797588 0.960304200649 0.278871774673
vn -0.522972822189 0.809515893459 0.266802221537
vn -0.693127334118 0.708537280560 0.132473975420
vn -0.693127334118 0.708537280560 0.132473975420
vn 0.005082568154 0.994097888470 0.108367890120
vn -0.006807797588 0.960304200649 0.278871774673
vn -0.522972822189 0.809515893459 0.266802221537
vn -0.841702699661 0.486788362265 0.233610153198
vn -0.693127334118 0.708537280560 0.132473975420
vn -0.841702699661 0.486788362265 0.233610153198
vn -0.958466231823 -0.097956560552 0.267856329679
vn -0.990645110607 -0.019769214094 0.135023683310
vn -0.990645110607 -0.019769214094 0.135023683310
vn -0.693127334118 0.708537280560 0.132473975420
vn -0.841702699661 0.486788362265 0.233610153198
vn -0.958466231823 -0.097956560552 0.267856329679
vn -0.888086259365 -0.357701927423 0.288707733154
vn -0.696817040443 -0.697546839714 0.166956409812
vn -0.696817040443 -0.697546839714 0.166956409812
vn -0.990645110607 -0.019769214094 0.135023683310
vn -0.958466231823 -0.097956560552 0.267856329679
vn -0.888086259365 -0.357701927423 0.288707733154
vn -0.486977070570 -0.840718626976 0.236739397049
vn -0.696817040443 -0.697546839714 0.166956409812
vn -0.486977070570 -0.840718626976 0.236739397049
vn 0.140571653843 -0.957517266273 0.251794248819
vn 0.032841157168 -0.982039749622 0.185793831944
vn 0.032841157168 -0.982039749622 0.185793831944
vn -0.696817040443 -0.697546839714 0.166956409812
vn -0.486977070570 -0.840718626976 0.236739397049
vn 0.140571653843 -0.957517266273 0.251794248819
vn 0.566103756428 -0.784248828888 0.253929674625
vn 0.674818754196 -0.709037125111 0.204660639167
vn 0.674818754196 -0.709037125111 0.204660639167
vn 0.032841157168 -0.982039749622 0.185793831944
vn 0.140571653843 -0.957517266273 0.251794248819
vn 0.566103756428 -0.784248828888 0.253929674625
vn 0.850314974785 -0.466343790293 0.243901401758
vn 0.674818754196 -0.709037125111 0.204660639167
vn 0.850314974785 -0.466343790293 0.243901401758
vn 0.968759298325 -0.000000271072 0.248002946377
vn 0.980570852757 -0.005904702470 0.196076318622
vn 0.980570852757 -0.005904702470 0.196076318622
vn 0.674818754196 -0.709037125111 0.204660639167
vn 0.850314974785 -0.466343790293 0.243901401758
vn 0.980570852757 -0.005904702470 0.196076318622
vn 0.689916431904 0.705753445625 0.161019712687
vn 0.783464431763 0.619375765324 0.050568386912
vn 0.783464431763 0.619375765324 0.050568386912
vn 0.926006913185 -0.340743899345 0.162495627999
vn 0.980570852757 -0.005904702470 0.196076318622
vn 0.689916431904 0.705753445625 0.161019712687
vn 0.005082568154 0.994097888470 0.108367890120
vn 0.016915181652 0.997647821903 -0.066428206861
vn 0.016915181652 0.997647821903 -0.066428206861
vn 0.783464431763 0.619375765324 0.050568386912
vn 0.689916431904 0.705753445625 0.161019712687
vn 0.005082568154 0.994097888470 0.108367890120
vn -0.693127334118 0.708537280560 0.132473975420
vn -0.776806652546 0.619790613651 -0.111494585872
vn -0.776806652546 0.619790613651 -0.111494585872
vn 0.016915181652 0.997647821903 -0.066428206861
vn 0.005082568154 0.994097888470 0.108367890120
vn -0.693127334118 0.708537280560 0.132473975420
vn -0.990645110607 -0.019769214094 0.135023683310
vn -0.936807692051 -0.349554419518 -0.014250359498
vn -0.936807692051 -0.349554419518 -0.014250359498
vn -0.776806652546 0.619790613651 -0.111494585872
vn -0.693127334118 0.708537280560 0.132473975420
vn -0.990645110607 -0.019769214094 0.135023683310
vn -0.696817040443 -0.697546839714 0.166956409812
vn -0.936807692051 -0.349554419518 -0.014250359498
vn -0.696817040443 -0.697546839714 0.166956409812
vn 0.032841157168 -0.982039749622 0.185793831944
vn 0.010551258922 -0.989482223988 0.144269183278
vn 0.010551258922 -0.989482223988 0.144269183278
vn -0.936807692051 -0.349554419518 -0.014250359498
vn -0.696817040443 -0.697546839714 0.166956409812
vn 0.032841157168 -0.982039749622 0.185793831944
vn 0.674818754196 -0.709037125111 0.204660639167
vn 0.926006913185 -0.340743899345 0.162495627999
vn 0.926006913185 -0.340743899345 0.162495627999
vn 0.010551258922 -0.989482223988 0.144269183278
vn 0.032841157168 -0.982039749622 0.185793831944
vn 0.674818754196 -0.709037125111 0.204660639167
vn 0.980570852757 -0.005904702470 0.196076318622
vn 0.926006913185 -0.340743899345 0.162495627999
vn 0.926006913185 -0.340743899345 0.162495627999
vn 0.783464431763 0.619375765324 0.050568386912
vn 0.780177414417 0.622869789600 0.057934232056
vn 0.780177414417 0.622869789600 0.057934232056
vn 0.910889208317 -0.317132174969 0.264022707939
vn 0.926006913185 -0.340743899345 0.162495627999
vn 0.783464431763 0.619375765324 0.050568386912
vn 0.016915181652 0.997647821903 -0.066428206861
vn 0.044735454023 0.984820961952 -0.167709186673
vn 0.044735454023 0.984820961952 -0.167709186673
vn 0.780177414417 0.622869789600 0.057934232056
vn 0.783464431763 0.619375765324 0.050568386912
vn 0.016915181652 0.997647821903 -0.066428206861
vn -0.776806652546 0.619790613651 -0.111494585872
vn -0.737842857838 0.622636973858 -0.260597676039
vn -0.737842857838 0.622636973858 -0.260597676039
vn 0.044735454023 0.984820961952 -0.167709186673
vn 0.016915181652 0.997647821903 -0.066428206861
vn -0.776806652546 0.619790613651 -0.111494585872
vn -0.936807692051 -0.349554419518 -0.014250359498
vn -0.931666254997 -0.346954554319 -0.107798345387
vn -0.931666254997 -0.346954554319 -0.107798345387
vn -0.737842857838 0.622636973858 -0.260597676039
vn -0.776806652546 0.619790613651 -0.111494585872
vn -0.936807692051 -0.349554419518 -0.014250359498
vn 0.010551258922 -0.989482223988 0.144269183278
vn -0.013906389475 -0.979877889156 0.199112802744
vn -0.013906389475 -0.979877889156 0.199112802744
vn -0.931666254997 -0.346954554319 -0.107798345387
vn -0.936807692051 -0.349554419518 -0.014250359498
vn 0.010551258922 -0.989482223988 0.144269183278
vn 0.926006913185 -0.340743899345 0.162495627999
vn 0.910889208317 -0.317132174969 0.264022707939
vn 0.910889208317 -0.317132174969 0.264022707939
vn -0.013906389475 -0.979877889156 0.199112802744
vn 0.010551258922 -0.989482223988 0.144269183278
vn 0.910889208317 -0.317132174969 0.264022707939
vn 0.780177414417 0.622869789600 0.057934232056
vn 0.777520000935 0.622979283333 0.085787214339
vn 0.777520000935 0.622979283333 0.085787214339
vn 0.875209808350 -0.303115308285 0.376999884844
vn 0.910889208317 -0.317132174969 0.264022707939
vn 0.780177414417 0.622869789600 0.057934232056
vn 0.044735454023 0.984820961952 -0.167709186673
vn 0.072508603334 0.969361543655 -0.234692871571
vn 0.072508603334 0.969361543655 -0.234692871571
vn 0.777520000935 0.622979283333 0.085787214339
vn 0.780177414417 0.622869789600 0.057934232056
vn 0.044735454023 0.984820961952 -0.167709186673
vn -0.737842857838 0.622636973858 -0.260597676039
vn -0.696224153042 0.610954701900 -0.376837223768
vn -0.696224153042 0.610954701900 -0.376837223768
vn 0.072508603334 0.969361543655 -0.234692871571
vn 0.044735454023 0.984820961952 -0.167709186673
vn -0.737842857838 0.622636973858 -0.260597676039
vn -0.931666254997 -0.346954554319 -0.107798345387
vn -0.923174917698 -0.337973535061 -0.183090090752
vn -0.923174917698 -0.337973535061 -0.183090090752
vn -0.696224153042 0.610954701900 -0.376837223768
vn -0.737842857838 0.622636973858 -0.260597676039
vn -0.931666254997 -0.346954554319 -0.107798345387
vn -0.013906389475 -0.979877889156 0.199112802744
vn -0.056054346263 -0.962811827660 0.264293968678
vn -0.056054346263 -0.962811827660 0.264293968678
vn -0.923174917698 -0.337973535061 -0.183090090752
vn -0.931666254997 -0.346954554319 -0.107798345387
vn -0.013906389475 -0.979877889156 0.199112802744
vn 0.910889208317 -0.317132174969 0.264022707939
vn 0.875209808350 -0.303115308285 0.376999884844
vn 0.875209808350 -0.303115308285 0.376999884844
vn -0.056054346263 -0.962811827660 0.264293968678
vn -0.013906389475 -0.979877889156 0.199112802744
vn 0.875209808350 -0.303115308285 0.376999884844
vn 0.777520000935 0.622979283333 0.085787214339
vn 0.780147612095 0.618317306042 0.095149509609
vn 0.780147612095 0.618317306042 0.095149509609
vn 0.857383728027 -0.292127072811 0.423739194870
vn 0.875209808350 -0.303115308285 0.376999884844
vn 0.777520000935 0.622979283333 0.085787214339
vn 0.072508603334 0.969361543655 -0.234692871571
vn 0.098339915276 0.959172666073 -0.265173524618
vn 0.098339915276 0.959172666073 -0.265173524618
vn 0.780147612095 0.618317306042 0.095149509609
vn 0.777520000935 0.622979283333 0.085787214339
vn 0.072508603334 0.969361543655 -0.234692871571
vn -0.696224153042 0.610954701900 -0.376837223768
vn -0.664217412472 0.611833989620 -0.429504841566
vn -0.664217412472 0.611833989620 -0.429504841566
vn 0.098339915276 0.959172666073 -0.265173524618
vn 0.072508603334 0.969361543655 -0.234692871571
vn -0.696224153042 0.610954701900 -0.376837223768
vn -0.923174917698 -0.337973535061 -0.183090090752
vn -0.920673727989 -0.327056705952 -0.213058322668
vn -0.920673727989 -0.327056705952 -0.213058322668
vn -0.664217412472 0.611833989620 -0.429504841566
vn -0.696224153042 0.610954701900 -0.376837223768
vn -0.923174917698 -0.337973535061 -0.183090090752
vn -0.056054346263 -0.962811827660 0.264293968678
vn -0.074612870812 -0.950507581234 0.301609367132
vn -0.074612870812 -0.950507581234 0.301609367132
vn -0.920673727989 -0.327056705952 -0.213058322668
vn -0.923174917698 -0.337973535061 -0.183090090752
vn -0.056054346263 -0.962811827660 0.264293968678
vn 0.875209808350 -0.303115308285 0.376999884844
vn 0.857383728027 -0.292127072811 0.423739194870
vn 0.857383728027 -0.292127072811 0.423739194870
vn -0.074612870812 -0.950507581234 0.301609367132
vn -0.056054346263 -0.962811827660 0.264293968678
vn -0.393181920052 0.118179343641 0.911834180355
vn -0.199623405933 0.278335660696 0.939510405064
vn -0.363850742579 0.362242221832 0.858133554459
vn -0.363850742579 0.362242221832 0.858133554459
vn -0.338337212801 0.575864851475 0.744249701500
vn -0.522748708725 0.466068536043 0.713802456856
vn -0.522748708725 0.466068536043 0.713802456856
vn -0.539756655693 0.273200988770 0.796256244183
vn -0.363850742579 0.362242221832 0.858133554459
vn -0.539756655693 0.273200988770 0.796256244183
vn -0.393181920052 0.118179343641 0.911834180355
vn -0.363850742579 0.362242221832 0.858133554459
vn -0.338337212801 0.575864851475 0.744249701500
vn -0.363850742579 0.362242221832 0.858133554459
vn -0.159403353930 0.489769577980 0.857155978680
vn -0.363850742579 0.362242221832 0.858133554459
vn -0.199623405933 0.278335660696 0.939510405064
vn -0.159403353930 0.489769577980 0.857155978680
# 228 vertex normals

vt 0.423962771893 0.111012861133 0.000000000000
vt 0.372365474701 0.093754373491 0.000000000000
vt 0.468610405922 0.109112441540 0.000000000000
vt 0.513313770294 0.157626554370 0.000000000000
vt 0.597939193249 0.138302519917 0.000000000000
vt 0.557687222958 0.095655560493 0.000000000000
vt 0.642330408096 0.126180380583 0.000000000000
vt 0.691958725452 0.116841346025 0.000000000000
vt 0.691098451614 0.199887096882 0.000000000000
vt 0.725135564804 0.207955494523 0.000000000000
vt 0.301567435265 0.151695430279 0.000000000000
vt 0.337899208069 0.130810439587 0.000000000000
vt 0.463874042034 0.212674468756 0.000000000000
vt 0.416619062424 0.217305898666 0.000000000000
vt 0.514882266521 0.212271749973 0.000000000000
vt 0.566982030869 0.212778747082 0.000000000000
vt 0.614857554436 0.217681765556 0.000000000000
vt 0.659618616104 0.227737784386 0.000000000000
vt 0.699052512646 0.241538673639 0.000000000000
vt 0.373953819275 0.226802885532 0.000000000000
vt 0.479135870934 0.509970545769 0.000000000000
vt 0.445838570595 0.510894775391 0.000000000000
vt 0.515617728233 0.509777486324 0.000000000000
vt 0.552414178848 0.510353922844 0.000000000000
vt 0.586013972759 0.511543512344 0.000000000000
vt 0.638001620770 0.517851710320 0.000000000000
vt 0.476815521717 0.843400835991 0.000000000000
vt 0.448381423950 0.841823339462 0.000000000000
vt 0.509628117085 0.844092726707 0.000000000000
vt 0.542628586292 0.843914151192 0.000000000000
vt 0.571093380451 0.842799067497 0.000000000000
vt 0.617684841156 0.843393206596 0.000000000000
vt 0.325481891632 0.958669841290 0.000000000000
vt 0.296545267105 0.955189168453 0.000000000000
vt 0.292231976986 0.693183958530 0.000000000000
vt 0.317537128925 0.692690908909 0.000000000000
vt 0.263169944286 0.953994035721 0.000000000000
vt 0.261497676373 0.693105340004 0.000000000000
vt 0.534900784492 0.941696882248 0.000000000000
vt 0.497450470924 0.955531835556 0.000000000000
vt 0.505454778671 0.925143957138 0.000000000000
vt 0.485806465149 0.911273717880 0.000000000000
vt 0.509657263756 0.895624279976 0.000000000000
vt 0.530629277229 0.902355194092 0.000000000000
vt 0.482250928879 0.939422369003 0.000000000000
vt 0.229664281011 0.955630064011 0.000000000000
vt 0.230628862977 0.693585455418 0.000000000000
vt 0.200853422284 0.959472656250 0.000000000000
vt 0.205389872193 0.693418025970 0.000000000000
vt 0.153814807534 0.961637496948 0.000000000000
vt 0.162329748273 0.693275332451 0.000000000000
vt 0.287544012070 0.434377312660 0.000000000000
vt 0.308902084827 0.432060420513 0.000000000000
vt 0.259822607040 0.434754192829 0.000000000000
vt 0.231975212693 0.434732198715 0.000000000000
vt 0.210665002465 0.432686448097 0.000000000000
vt 0.171565786004 0.431588470936 0.000000000000
vt 0.307133853436 0.213011637330 0.000000000000
vt 0.336366772652 0.242168009281 0.000000000000
vt 0.393652558327 0.516241848469 0.000000000000
vt 0.401487171650 0.840839982033 0.000000000000
vt 0.372895479202 0.960239231586 0.000000000000
vt 0.360904753208 0.691982984543 0.000000000000
vt 0.348272860050 0.430441409349 0.000000000000
# 64 texture coords

g Branch_Big_Stump008
f 2/1/1 14/13/2 13/14/3 
f 13/14/4 1/2/5 2/1/6 
f 2/1/7 7/3/8 14/13/9 
f 8/4/10 15/15/11 14/13/12 
f 14/13/13 7/3/14 8/4/15 
f 8/4/16 3/6/17 16/16/18 
f 16/16/19 15/15/20 8/4/21 
f 3/6/22 4/5/23 16/16/24 
f 4/5/25 9/7/26 17/17/27 
f 17/17/28 16/16/29 4/5/30 
f 9/7/31 5/8/32 18/18/33 
f 18/18/34 17/17/35 9/7/36 
f 5/8/37 6/9/38 18/18/39 
f 6/9/40 10/10/41 19/19/42 
f 19/19/43 18/18/44 6/9/45 
f 10/58/46 11/11/47 20/20/48 
f 20/20/49 19/59/50 10/58/51 
f 11/11/52 12/12/53 20/20/54 
f 12/12/55 1/2/56 13/14/57 
f 13/14/58 20/20/59 12/12/60 
f 13/14/61 14/13/62 21/21/63 
f 21/21/64 26/22/65 13/14/66 
f 14/13/67 15/15/68 22/23/69 
f 22/23/70 21/21/71 14/13/72 
f 15/15/73 16/16/74 23/24/75 
f 23/24/76 22/23/77 15/15/78 
f 16/16/79 17/17/80 24/25/81 
f 24/25/82 23/24/83 16/16/84 
f 17/17/85 18/18/86 24/25/87 
f 18/18/88 19/19/89 25/26/90 
f 25/26/91 24/25/92 18/18/93 
f 19/59/94 20/20/95 26/22/96 
f 26/22/97 25/60/98 19/59/99 
f 20/20/100 13/14/101 26/22/102 
f 26/22/103 21/21/104 27/27/105 
f 27/27/106 32/28/107 26/22/108 
f 21/21/109 22/23/110 28/29/111 
f 28/29/112 27/27/113 21/21/114 
f 22/23/115 23/24/116 29/30/117 
f 29/30/118 28/29/119 22/23/120 
f 23/24/121 24/25/122 30/31/123 
f 30/31/124 29/30/125 23/24/126 
f 24/25/127 25/26/128 31/32/129 
f 31/32/130 30/31/131 24/25/132 
f 25/60/133 26/22/134 32/28/135 
f 32/28/136 31/61/137 25/60/138 
f 32/33/139 27/34/140 33/35/141 
f 33/35/142 38/36/143 32/33/144 
f 27/34/145 28/37/146 34/38/147 
f 34/38/148 33/35/149 27/34/150 
f 28/37/151 29/46/152 35/47/153 
f 35/47/154 34/38/155 28/37/156 
f 29/46/157 30/48/158 36/49/159 
f 36/49/160 35/47/161 29/46/162 
f 30/48/163 31/50/164 37/51/165 
f 37/51/166 36/49/167 30/48/168 
f 31/62/169 32/33/170 38/36/171 
f 38/36/172 37/63/173 31/62/174 
f 38/36/175 33/35/176 40/52/177 
f 40/52/178 39/53/179 38/36/180 
f 33/35/181 34/38/182 41/54/183 
f 41/54/184 40/52/185 33/35/186 
f 34/38/187 35/47/188 42/55/189 
f 42/55/190 41/54/191 34/38/192 
f 35/47/193 36/49/194 43/56/195 
f 43/56/196 42/55/197 35/47/198 
f 36/49/199 37/51/200 44/57/201 
f 44/57/202 43/56/203 36/49/204 
f 37/63/205 38/36/206 39/53/207 
f 39/53/208 44/64/209 37/63/210 
f 44/39/211 39/40/212 45/41/213 
f 45/41/214 41/42/215 42/43/216 
f 42/43/217 43/44/218 45/41/219 
f 43/44/220 44/39/221 45/41/222 
f 41/42/223 45/41/224 40/45/225 
f 45/41/226 39/40/227 40/45/228 
# 76 faces

