# 3ds Max Wavefront OBJ Exporter v0.97b - (c)2007 guruware
# File Created: 28.09.2012 17:26:44

#
# object Shape027
#

v  -0.076408863068 -0.091592788696 -0.094695925713
v  -0.223603010178 -0.091592796147 0.189072251320
v  -0.215437650681 -0.091592788696 -0.017857313156
v  -0.084651231766 -0.091592788696 -0.000867962837
v  -0.210679054260 -0.091592781246 -0.208515405655
v  -0.142624855042 -0.091592781246 -0.257126450539
v  0.087438821793 -0.091592781246 -0.253011345863
v  -0.009482383728 -0.091592788696 -0.094648480415
v  0.186789512634 -0.091592781246 -0.125331521034
v  0.040129899979 -0.091592788696 -0.008382320404
v  0.223603248596 -0.091592796147 0.063367962837
v  0.145125389099 -0.091592796147 0.193922162056
v  0.021367073059 -0.091592796147 0.060807347298
v  0.059955358505 -0.091592803597 0.246861577034
v  -0.075453996658 -0.091592796147 0.093553185463
v  -0.188880681992 -0.091592803597 0.257126450539
v  -0.076408863068 0.091592773795 -0.094695925713
v  -0.223603010178 0.091592758894 0.189072251320
v  -0.215437650681 0.091592773795 -0.017857313156
v  -0.084651231766 0.091592773795 -0.000867962837
v  -0.210679054260 0.091592788696 -0.208515405655
v  -0.142624855042 0.091592788696 -0.257126450539
v  0.087438821793 0.091592788696 -0.253011345863
v  -0.009482383728 0.091592773795 -0.094648480415
v  0.186789512634 0.091592773795 -0.125331521034
v  0.040129899979 0.091592773795 -0.008382320404
v  0.223603248596 0.091592773795 0.063367962837
v  0.145125389099 0.091592758894 0.193922162056
v  0.021367073059 0.091592773795 0.060807347298
v  0.059955358505 0.091592758894 0.246861577034
v  -0.075453996658 0.091592773795 0.093553185463
v  -0.188880681992 0.091592758894 0.257126450539
# 32 vertices

vn 0.000000000000 -1.000000000000 -0.000000043711
vn 0.000000000000 -1.000000000000 -0.000000043711
vn 0.000000000000 -1.000000000000 -0.000000043711
vn 0.000000000000 -1.000000000000 -0.000000043711
vn 0.000000000000 -1.000000000000 -0.000000043711
vn 0.000000000000 -1.000000000000 -0.000000043711
vn 0.000000000000 -1.000000000000 -0.000000043711
vn 0.000000000000 -1.000000000000 -0.000000043711
vn 0.000000000000 -1.000000000000 -0.000000043711
vn 0.000000000000 -1.000000000000 -0.000000043711
vn 0.000000000000 -1.000000000000 -0.000000043711
vn 0.000000000000 -1.000000000000 -0.000000043711
vn 0.000000000000 -1.000000000000 -0.000000043711
vn 0.000000000000 -1.000000000000 -0.000000043711
vn 0.000000000000 -1.000000000000 -0.000000043711
vn 0.000000000000 -1.000000000000 -0.000000043711
vn 0.000000000000 -1.000000000000 -0.000000043711
vn 0.000000000000 -1.000000000000 -0.000000043711
vn 0.000000000000 -1.000000000000 -0.000000043711
vn 0.000000000000 -1.000000000000 -0.000000043711
vn 0.000000000000 -1.000000000000 -0.000000043711
vn 0.000000000000 -1.000000000000 -0.000000043711
vn 0.000000000000 -1.000000000000 -0.000000043711
vn 0.000000000000 -1.000000000000 -0.000000043711
vn 0.000000000000 -1.000000000000 -0.000000043711
vn 0.000000000000 -1.000000000000 -0.000000043711
vn 0.000000000000 -1.000000000000 -0.000000043711
vn 0.000000000000 -1.000000000000 -0.000000043711
vn 0.000000000000 -1.000000000000 -0.000000043711
vn 0.000000000000 -1.000000000000 -0.000000043711
vn 0.000000000000 -1.000000000000 -0.000000043711
vn 0.000000000000 -1.000000000000 -0.000000043711
vn 0.000000000000 -1.000000000000 -0.000000043711
vn 0.000000000000 -1.000000000000 -0.000000043711
vn 0.000000000000 -1.000000000000 -0.000000043711
vn 0.000000000000 -1.000000000000 -0.000000043711
vn 0.000000000000 -1.000000000000 -0.000000043711
vn 0.000000000000 -1.000000000000 -0.000000043711
vn 0.000000000000 -1.000000000000 -0.000000043711
vn 0.000000000000 -1.000000000000 -0.000000043711
vn 0.000000000000 -1.000000000000 -0.000000043711
vn 0.000000000000 -1.000000000000 -0.000000043711
vn 0.000000000000 -1.000000000000 -0.000000043711
vn 0.000000000000 -1.000000000000 -0.000000043711
vn 0.000000000000 -1.000000000000 -0.000000043711
vn 0.000000000000 -1.000000000000 -0.000000043711
vn 0.000000000000 -1.000000000000 -0.000000043711
vn 0.000000000000 -1.000000000000 -0.000000043711
vn 0.000000000000 1.000000000000 0.000000043711
vn 0.000000000000 1.000000000000 0.000000043711
vn 0.000000000000 1.000000000000 0.000000043711
vn 0.000000000000 1.000000000000 0.000000043711
vn 0.000000000000 1.000000000000 0.000000043711
vn 0.000000000000 1.000000000000 0.000000043711
vn 0.000000000000 1.000000000000 0.000000043711
vn 0.000000000000 1.000000000000 0.000000043711
vn 0.000000000000 1.000000000000 0.000000043711
vn 0.000000000000 1.000000000000 0.000000043711
vn 0.000000000000 1.000000000000 0.000000043711
vn 0.000000000000 1.000000000000 0.000000043711
vn 0.000000000000 1.000000000000 0.000000043711
vn 0.000000000000 1.000000000000 0.000000043711
vn 0.000000000000 1.000000000000 0.000000043711
vn 0.000000000000 1.000000000000 0.000000043711
vn 0.000000000000 1.000000000000 0.000000043711
vn 0.000000000000 1.000000000000 0.000000043711
vn 0.000000000000 1.000000000000 0.000000043711
vn 0.000000000000 1.000000000000 0.000000043711
vn 0.000000000000 1.000000000000 0.000000043711
vn 0.000000000000 1.000000000000 0.000000043711
vn 0.000000000000 1.000000000000 0.000000043711
vn 0.000000000000 1.000000000000 0.000000043711
vn 0.000000000000 1.000000000000 0.000000043711
vn 0.000000000000 1.000000000000 0.000000043711
vn 0.000000000000 1.000000000000 0.000000043711
vn 0.000000000000 1.000000000000 0.000000043711
vn 0.000000000000 1.000000000000 0.000000043711
vn 0.000000000000 1.000000000000 0.000000043711
vn 0.000000000000 1.000000000000 0.000000043711
vn 0.000000000000 1.000000000000 0.000000043711
vn 0.000000000000 1.000000000000 0.000000043711
vn 0.000000000000 1.000000000000 0.000000043711
vn 0.000000000000 1.000000000000 0.000000043711
vn 0.000000000000 1.000000000000 0.000000043711
vn 0.000000000000 1.000000000000 0.000000043711
vn 0.000000000000 1.000000000000 0.000000043711
vn 0.000000000000 1.000000000000 0.000000043711
vn 0.000000000000 1.000000000000 0.000000043711
vn 0.000000000000 1.000000000000 0.000000043711
vn 0.000000000000 1.000000000000 0.000000043711
vn 0.000000000000 1.000000000000 0.000000043711
vn 0.000000000000 1.000000000000 0.000000043711
vn 0.000000000000 1.000000000000 0.000000043711
vn 0.000000000000 1.000000000000 0.000000043711
vn 0.000000000000 1.000000000000 0.000000043711
vn 0.000000000000 1.000000000000 0.000000043711
vn -0.000708916516 -0.000000043711 0.999999761581
vn -0.000708916516 -0.000000043711 0.999999761581
vn -0.000708916516 -0.000000043711 0.999999761581
vn -0.000708916516 -0.000000043711 0.999999761581
vn -0.000708916516 -0.000000043711 0.999999761581
vn -0.000708916516 -0.000000043711 0.999999761581
vn -0.866866171360 -0.000000021792 0.498540937901
vn -0.866866171360 -0.000000021792 0.498540937901
vn -0.866866171360 -0.000000021792 0.498540937901
vn -0.866866171360 -0.000000021792 0.498540937901
vn -0.866866171360 -0.000000021792 0.498540937901
vn -0.866866171360 -0.000000021792 0.498540937901
vn -0.965142011642 0.000000011440 -0.261726856232
vn -0.965142011642 0.000000011440 -0.261726826429
vn -0.965142011642 0.000000011440 -0.261726856232
vn -0.965142011642 0.000000011440 -0.261726856232
vn -0.965142011642 0.000000011440 -0.261726826429
vn -0.965142011642 0.000000011440 -0.261726856232
vn -0.320382267237 0.000000041407 -0.947288334370
vn -0.320382237434 0.000000041407 -0.947288334370
vn -0.320382267237 0.000000041407 -0.947288334370
vn -0.320382267237 0.000000041407 -0.947288334370
vn -0.320382237434 0.000000041407 -0.947288334370
vn -0.320382267237 0.000000041407 -0.947288334370
vn 0.995289504528 0.000000004238 -0.096947684884
vn 0.999988794327 0.000000000207 -0.004739771131
vn 0.999988794327 0.000000000207 -0.004739776719
vn 0.999988794327 0.000000000207 -0.004739776719
vn 0.995289504528 0.000000004238 -0.096947677433
vn 0.995289504528 0.000000004238 -0.096947684884
vn 0.999988794327 0.000000000207 -0.004739771131
vn 0.996163785458 -0.000000003825 0.087508544326
vn 0.996163785458 -0.000000003825 0.087508544326
vn 0.996163785458 -0.000000003825 0.087508544326
vn 0.999988794327 0.000000000207 -0.004739776719
vn 0.999988794327 0.000000000207 -0.004739771131
vn -0.296653658152 0.000000041744 -0.954985141754
vn -0.581245362759 0.000000035569 -0.813728332520
vn -0.581245303154 0.000000035569 -0.813728392124
vn -0.581245303154 0.000000035569 -0.813728392124
vn -0.296653687954 0.000000041744 -0.954985141754
vn -0.296653658152 0.000000041744 -0.954985141754
vn -0.999688684940 0.000000001091 -0.024951023981
vn -0.999481737614 0.000000001407 -0.032190818340
vn -0.999481737614 0.000000001407 -0.032190818340
vn -0.999481737614 0.000000001407 -0.032190818340
vn -0.999688684940 0.000000001091 -0.024951025844
vn -0.999688684940 0.000000001091 -0.024951023981
vn -0.999481737614 0.000000001407 -0.032190818340
vn -0.976725280285 -0.000000009376 0.214494064450
vn -0.976725280285 -0.000000009376 0.214494064450
vn -0.976725280285 -0.000000009376 0.214494064450
vn -0.999481737614 0.000000001407 -0.032190818340
vn -0.999481737614 0.000000001407 -0.032190818340
vn -0.976725280285 -0.000000009376 0.214494064450
vn -0.890757679939 -0.000000019866 0.454478621483
vn -0.890757679939 -0.000000019866 0.454478591681
vn -0.890757679939 -0.000000019866 0.454478591681
vn -0.976725280285 -0.000000009376 0.214494064450
vn -0.976725280285 -0.000000009376 0.214494064450
vn 0.041216500103 -0.000000043674 0.999150216579
vn 0.294258683920 -0.000000041776 0.955725789070
vn 0.294258654118 -0.000000041776 0.955725848675
vn 0.294258654118 -0.000000041776 0.955725848675
vn 0.041216500103 -0.000000043674 0.999150216579
vn 0.041216500103 -0.000000043674 0.999150216579
vn 0.294258683920 -0.000000041776 0.955725789070
vn 0.712352871895 -0.000000030678 0.701821506023
vn 0.712352871895 -0.000000030678 0.701821506023
vn 0.712352871895 -0.000000030678 0.701821506023
vn 0.294258654118 -0.000000041776 0.955725848675
vn 0.294258683920 -0.000000041776 0.955725789070
vn 0.712352871895 -0.000000030678 0.701821506023
vn 0.984851121902 -0.000000007580 0.173401996493
vn 0.984851121902 -0.000000007580 0.173401996493
vn 0.984851121902 -0.000000007580 0.173401996493
vn 0.712352871895 -0.000000030678 0.701821506023
vn 0.712352871895 -0.000000030678 0.701821506023
vn 0.984851121902 -0.000000007580 0.173401996493
vn 0.910226702690 0.000000018101 -0.414110332727
vn 0.910226702690 0.000000018101 -0.414110362530
vn 0.910226702690 0.000000018101 -0.414110362530
vn 0.984851121902 -0.000000007580 0.173401996493
vn 0.984851121902 -0.000000007580 0.173401996493
vn 0.910226702690 0.000000018101 -0.414110332727
vn 0.789219975471 0.000000026844 -0.614110589027
vn 0.789219975471 0.000000026844 -0.614110589027
vn 0.789219975471 0.000000026844 -0.614110589027
vn 0.910226702690 0.000000018101 -0.414110362530
vn 0.910226702690 0.000000018101 -0.414110332727
vn 0.017883948982 0.000000043704 -0.999840080738
vn -0.296653658152 0.000000041744 -0.954985141754
vn -0.296653687954 0.000000041744 -0.954985141754
vn -0.296653687954 0.000000041744 -0.954985141754
vn 0.017883947119 0.000000043704 -0.999840080738
vn 0.017883948982 0.000000043704 -0.999840080738
# 192 vertex normals

vt 0.211254253983 0.452062696218 0.000000000000
vt 0.224803358316 0.452062696218 0.000000000000
vt 0.224803432822 0.489148169756 0.000000000000
vt 0.211254328489 0.489148288965 0.000000000000
vt 0.244949862361 0.452062785625 0.000000000000
vt 0.244949951768 0.489148139954 0.000000000000
vt 0.259462863207 0.452062875032 0.000000000000
vt 0.259463101625 0.489148080349 0.000000000000
vt 0.280154436827 0.452062636614 0.000000000000
vt 0.280154854059 0.489147871733 0.000000000000
vt 0.192185789347 0.452062636614 0.000000000000
vt 0.192185848951 0.489148378372 0.000000000000
vt 0.598610877991 0.360739946365 0.000000000000
vt 0.615542054176 0.360739976168 0.000000000000
vt 0.615541934967 0.397825360298 0.000000000000
vt 0.598610758781 0.397825360298 0.000000000000
vt 0.654152274132 0.360740065575 0.000000000000
vt 0.654152214527 0.397825479507 0.000000000000
vt 0.696077346802 0.360740095377 0.000000000000
vt 0.696077287197 0.397825598717 0.000000000000
vt 0.711544334888 0.360740065575 0.000000000000
vt 0.711544334888 0.397825658321 0.000000000000
vt 0.773348331451 0.735423207283 0.000000000000
vt 0.773347854614 0.772509336472 0.000000000000
vt 0.793650507927 0.735423743725 0.000000000000
vt 0.793650150299 0.772509336472 0.000000000000
vt 0.824488222599 0.735424220562 0.000000000000
vt 0.824488282204 0.772509276867 0.000000000000
vt 0.863409280777 0.735424160957 0.000000000000
vt 0.863409698009 0.772508740425 0.000000000000
vt 0.896160006523 0.735423743725 0.000000000000
vt 0.896160662174 0.772508144379 0.000000000000
vt 0.815716564655 0.224322468042 0.000000000000
vt 0.834860265255 0.222463279963 0.000000000000
vt 0.865942955017 0.195090457797 0.000000000000
vt 0.868024110794 0.245392367244 0.000000000000
vt 0.854226350784 0.252411246300 0.000000000000
vt 0.812272071838 0.250760644674 0.000000000000
vt 0.773616909981 0.249798804522 0.000000000000
vt 0.763761162758 0.236041814089 0.000000000000
vt 0.764595508575 0.189534783363 0.000000000000
vt 0.790482103825 0.169451147318 0.000000000000
vt 0.828740298748 0.162009373307 0.000000000000
vt 0.855209648609 0.177873522043 0.000000000000
vt 0.828221142292 0.202891051769 0.000000000000
vt 0.814193189144 0.199098184705 0.000000000000
vt 0.796703100204 0.209127187729 0.000000000000
vt 0.796693325043 0.222656235099 0.000000000000
vt 0.882575809956 0.101747319102 0.000000000000
vt 0.863538026810 0.100082352757 0.000000000000
vt 0.863547563553 0.086563438177 0.000000000000
vt 0.881051242352 0.076542139053 0.000000000000
vt 0.895089685917 0.080332152545 0.000000000000
vt 0.901733756065 0.099889524281 0.000000000000
vt 0.932840168476 0.072537489235 0.000000000000
vt 0.922098755836 0.055333539844 0.000000000000
vt 0.895609259605 0.039481490850 0.000000000000
vt 0.857321977615 0.046917654574 0.000000000000
vt 0.831415772438 0.066986024380 0.000000000000
vt 0.830580770969 0.113457724452 0.000000000000
vt 0.840444028378 0.127204254270 0.000000000000
vt 0.879128634930 0.128165498376 0.000000000000
vt 0.921114802361 0.129814907908 0.000000000000
vt 0.934922873974 0.122801147401 0.000000000000
vt 0.172979846597 0.452062636614 0.000000000000
vt 0.172979906201 0.489148408175 0.000000000000
vt 0.722927808762 0.735422492027 0.000000000000
vt 0.722927391529 0.772508978844 0.000000000000
vt 0.552027702332 0.360739767551 0.000000000000
vt 0.552027642727 0.397825211287 0.000000000000
# 70 texture coords

g Shape027
f 15/34/1 14/35/2 16/36/3 
f 4/33/4 15/34/5 16/36/6 
f 4/33/7 16/36/8 2/37/9 
f 4/33/10 2/37/11 3/38/12 
f 14/35/13 15/34/14 13/45/15 
f 12/44/16 14/35/17 13/45/18 
f 12/44/19 13/45/20 10/46/21 
f 11/43/22 12/44/23 10/46/24 
f 9/42/25 11/43/26 10/46/27 
f 9/42/28 10/46/29 8/47/30 
f 7/41/31 9/42/32 8/47/33 
f 7/41/34 8/47/35 1/48/36 
f 6/40/37 7/41/38 1/48/39 
f 5/39/40 6/40/41 1/48/42 
f 3/38/43 5/39/44 1/48/45 
f 4/33/46 3/38/47 1/48/48 
f 29/53/49 31/54/50 30/55/51 
f 29/53/52 30/55/53 28/56/54 
f 26/52/55 29/53/56 28/56/57 
f 26/52/58 28/56/59 27/57/60 
f 26/52/61 27/57/62 25/58/63 
f 24/51/64 26/52/65 25/58/66 
f 24/51/67 25/58/68 23/59/69 
f 17/50/70 24/51/71 23/59/72 
f 17/50/73 23/59/74 22/60/75 
f 17/50/76 22/60/77 21/61/78 
f 17/50/79 21/61/80 19/62/81 
f 20/49/82 17/50/83 19/62/84 
f 20/49/85 19/62/86 18/63/87 
f 20/49/88 18/63/89 32/64/90 
f 32/64/91 30/55/92 31/54/93 
f 20/49/94 32/64/95 31/54/96 
f 1/1/97 8/2/98 24/3/99 
f 24/3/100 17/4/101 1/1/102 
f 8/2/103 10/5/104 26/6/105 
f 26/6/106 24/3/107 8/2/108 
f 10/5/109 13/7/110 29/8/111 
f 29/8/112 26/6/113 10/5/114 
f 13/7/115 15/9/116 31/10/117 
f 31/10/118 29/8/119 13/7/120 
f 15/65/121 4/11/122 20/12/123 
f 20/12/124 31/66/125 15/65/126 
f 4/11/127 1/1/128 17/4/129 
f 17/4/130 20/12/131 4/11/132 
f 6/13/133 5/14/134 21/15/135 
f 21/15/136 22/16/137 6/13/138 
f 5/14/139 3/17/140 19/18/141 
f 19/18/142 21/15/143 5/14/144 
f 3/17/145 2/19/146 18/20/147 
f 18/20/148 19/18/149 3/17/150 
f 2/19/151 16/21/152 32/22/153 
f 32/22/154 18/20/155 2/19/156 
f 16/67/157 14/23/158 30/24/159 
f 30/24/160 32/68/161 16/67/162 
f 14/23/163 12/25/164 28/26/165 
f 28/26/166 30/24/167 14/23/168 
f 12/25/169 11/27/170 27/28/171 
f 27/28/172 28/26/173 12/25/174 
f 11/27/175 9/29/176 25/30/177 
f 25/30/178 27/28/179 11/27/180 
f 9/29/181 7/31/182 23/32/183 
f 23/32/184 25/30/185 9/29/186 
f 7/69/187 6/13/188 22/16/189 
f 22/16/190 23/70/191 7/69/192 
# 64 faces

