# 3ds Max Wavefront OBJ Exporter v0.97b - (c)2007 guruware
# File Created: 04.08.2012 10:58:17

#
# object Tube004
#

v  -0.000000024567 -0.219914481044 0.538117587566
v  0.435913324356 -0.219914391637 0.254139125347
v  0.463889241219 -0.219914332032 -0.265362143517
v  -0.000000059605 -0.219914272428 -0.500884890556
v  -0.463889330626 -0.219914332032 -0.265362024307
v  -0.435913264751 -0.219914391637 0.254139244556
v  0.469023078680 -0.000000089407 0.559354245663
v  0.718585014343 -0.000000022352 0.127100229263
v  0.631913006306 0.000000059605 -0.364440917969
v  -0.249562039971 0.000000111759 -0.685271501541
v  -0.631913125515 0.000000059605 -0.364440739155
v  -0.469022959471 -0.000000089407 0.559354305267
v  -0.000000033219 -0.000000119209 0.730064690113
v  -0.000000024567 0.219914287329 0.538117706776
v  -0.000000015007 -0.000000059605 0.332147270441
v  0.435913324356 0.219914317131 0.254139214754
v  0.266610294580 -0.000000022352 0.158462181687
v  0.463889241219 0.219914406538 -0.265362054110
v  0.283720731735 0.000000014901 -0.159271612763
v  0.249561861157 0.000000111759 -0.685271501541
v  -0.000000059605 0.219914436340 -0.500884771347
v  -0.000000037253 0.000000052154 -0.303320258856
v  -0.463889330626 0.219914406538 -0.265361934900
v  -0.283720791340 0.000000014901 -0.159271538258
v  -0.718585014343 -0.000000022352 0.127100452781
v  -0.435913264751 0.219914317131 0.254139333963
v  -0.266610264778 -0.000000022352 0.158462241292
# 27 vertices

vn 0.060139514506 -0.000000227545 0.998189985752
vn 0.067693024874 -0.966300487518 0.248356640339
vn 0.116794571280 -0.988104581833 0.100041538477
vn 0.116794571280 -0.988104581833 0.100041538477
vn 0.577403008938 -0.000000096013 0.816459298134
vn 0.060139514506 -0.000000227545 0.998189985752
vn 0.067693024874 -0.966300487518 0.248356640339
vn -0.000000185188 0.000000203431 -1.000000000000
vn -0.864794611931 0.000000081807 -0.502125740051
vn -0.864794611931 0.000000081807 -0.502125740051
vn 0.116794571280 -0.988104581833 0.100041538477
vn 0.067693024874 -0.966300487518 0.248356640339
vn 0.577403008938 -0.000000096013 0.816459298134
vn 0.116794571280 -0.988104581833 0.100041538477
vn 0.986766517162 -0.000000109934 0.162147775292
vn 0.986766517162 -0.000000109934 0.162147775292
vn 0.116794571280 -0.988104581833 0.100041538477
vn 0.181019872427 -0.967018723488 -0.179183200002
vn 0.181019872427 -0.967018723488 -0.179183200002
vn 0.833860218525 0.000000098113 -0.551975667477
vn 0.986766517162 -0.000000109934 0.162147775292
vn 0.116794571280 -0.988104581833 0.100041538477
vn -0.864794611931 0.000000081807 -0.502125740051
vn -0.867616713047 -0.000000173985 0.497233569622
vn -0.867616713047 -0.000000173985 0.497233569622
vn 0.181019872427 -0.967018723488 -0.179183200002
vn 0.116794571280 -0.988104581833 0.100041538477
vn 0.833860218525 0.000000098113 -0.551975667477
vn 0.181019872427 -0.967018723488 -0.179183200002
vn 0.026586562395 -0.988312244415 -0.150106966496
vn 0.026586562395 -0.988312244415 -0.150106966496
vn 0.418015718460 0.000000185326 -0.908439815044
vn 0.833860218525 0.000000098113 -0.551975667477
vn 0.181019872427 -0.967018723488 -0.179183200002
vn -0.867616713047 -0.000000173985 0.497233569622
vn -0.000000068404 -0.000000208524 1.000000000000
vn -0.000000068404 -0.000000208524 1.000000000000
vn 0.026586562395 -0.988312244415 -0.150106966496
vn 0.181019872427 -0.967018723488 -0.179183200002
vn 0.418015718460 0.000000185326 -0.908439815044
vn 0.026586562395 -0.988312244415 -0.150106966496
vn -0.351840227842 0.000000253269 -0.936060070992
vn -0.351840227842 0.000000253269 -0.936060070992
vn 0.026586562395 -0.988312244415 -0.150106966496
vn -0.248327389359 -0.966589570045 -0.063546501100
vn -0.248327389359 -0.966589570045 -0.063546501100
vn -0.893832683563 0.000000073054 -0.448400586843
vn -0.351840227842 0.000000253269 -0.936060070992
vn 0.026586562395 -0.988312244415 -0.150106966496
vn -0.000000068404 -0.000000208524 1.000000000000
vn 0.867616951466 -0.000000173985 0.497233182192
vn 0.867616951466 -0.000000173985 0.497233182192
vn -0.248327389359 -0.966589570045 -0.063546501100
vn 0.026586562395 -0.988312244415 -0.150106966496
vn -0.893832683563 0.000000073054 -0.448400586843
vn -0.248327389359 -0.966589570045 -0.063546501100
vn -0.143562272191 -0.988187432289 0.053623795509
vn -0.143562272191 -0.988187432289 0.053623795509
vn -0.995882749557 -0.000000033347 0.090650908649
vn -0.893832683563 0.000000073054 -0.448400586843
vn -0.248327389359 -0.966589570045 -0.063546501100
vn 0.867616951466 -0.000000173985 0.497233182192
vn 0.864794671535 0.000000149893 -0.502125620842
vn 0.864794671535 0.000000149893 -0.502125620842
vn -0.143562272191 -0.988187432289 0.053623795509
vn -0.248327389359 -0.966589570045 -0.063546501100
vn -0.995882749557 -0.000000033347 0.090650908649
vn -0.143562272191 -0.988187432289 0.053623795509
vn -0.634787440300 -0.000000209133 0.772686779499
vn -0.634787440300 -0.000000209133 0.772686779499
vn -0.143562272191 -0.988187432289 0.053623795509
vn 0.067693024874 -0.966300487518 0.248356640339
vn 0.067693024874 -0.966300487518 0.248356640339
vn 0.060139514506 -0.000000227545 0.998189985752
vn -0.634787440300 -0.000000209133 0.772686779499
vn -0.143562272191 -0.988187432289 0.053623795509
vn 0.864794671535 0.000000149893 -0.502125620842
vn -0.000000185188 0.000000203431 -1.000000000000
vn -0.000000185188 0.000000203431 -1.000000000000
vn 0.067693024874 -0.966300487518 0.248356640339
vn -0.143562272191 -0.988187432289 0.053623795509
vn 0.060139514506 -0.000000227545 0.998189985752
vn 0.577403008938 -0.000000096013 0.816459298134
vn 0.116794586182 0.988104581833 0.100041881204
vn 0.116794586182 0.988104581833 0.100041881204
vn 0.067693062127 0.966300368309 0.248357087374
vn 0.060139514506 -0.000000227545 0.998189985752
vn 0.067693062127 0.966300368309 0.248357087374
vn 0.116794586182 0.988104581833 0.100041881204
vn -0.864794611931 0.000000081807 -0.502125740051
vn -0.864794611931 0.000000081807 -0.502125740051
vn -0.000000185188 0.000000203431 -1.000000000000
vn 0.067693062127 0.966300368309 0.248357087374
vn 0.577403008938 -0.000000096013 0.816459298134
vn 0.986766517162 -0.000000109934 0.162147775292
vn 0.116794586182 0.988104581833 0.100041881204
vn 0.986766517162 -0.000000109934 0.162147775292
vn 0.833860218525 0.000000098113 -0.551975667477
vn 0.181019917130 0.967018723488 -0.179182887077
vn 0.181019917130 0.967018723488 -0.179182887077
vn 0.116794586182 0.988104581833 0.100041881204
vn 0.986766517162 -0.000000109934 0.162147775292
vn 0.116794586182 0.988104581833 0.100041881204
vn 0.181019917130 0.967018723488 -0.179182887077
vn -0.867616713047 -0.000000173985 0.497233569622
vn -0.867616713047 -0.000000173985 0.497233569622
vn -0.864794611931 0.000000081807 -0.502125740051
vn 0.116794586182 0.988104581833 0.100041881204
vn 0.833860218525 0.000000098113 -0.551975667477
vn 0.418015718460 0.000000185326 -0.908439815044
vn 0.026586569846 0.988312244415 -0.150106489658
vn 0.026586569846 0.988312244415 -0.150106489658
vn 0.181019917130 0.967018723488 -0.179182887077
vn 0.833860218525 0.000000098113 -0.551975667477
vn 0.181019917130 0.967018723488 -0.179182887077
vn 0.026586569846 0.988312244415 -0.150106489658
vn -0.000000068404 -0.000000208524 1.000000000000
vn -0.000000068404 -0.000000208524 1.000000000000
vn -0.867616713047 -0.000000173985 0.497233569622
vn 0.181019917130 0.967018723488 -0.179182887077
vn 0.418015718460 0.000000185326 -0.908439815044
vn -0.351840227842 0.000000253269 -0.936060070992
vn 0.026586569846 0.988312244415 -0.150106489658
vn -0.351840227842 0.000000253269 -0.936060070992
vn -0.893832683563 0.000000073054 -0.448400586843
vn -0.248327448964 0.966589510441 -0.063546180725
vn -0.248327448964 0.966589510441 -0.063546180725
vn 0.026586569846 0.988312244415 -0.150106489658
vn -0.351840227842 0.000000253269 -0.936060070992
vn 0.026586569846 0.988312244415 -0.150106489658
vn -0.248327448964 0.966589510441 -0.063546180725
vn 0.867616951466 -0.000000173985 0.497233182192
vn 0.867616951466 -0.000000173985 0.497233182192
vn -0.000000068404 -0.000000208524 1.000000000000
vn 0.026586569846 0.988312244415 -0.150106489658
vn -0.893832683563 0.000000073054 -0.448400586843
vn -0.995882749557 -0.000000033347 0.090650908649
vn -0.143562227488 0.988187432289 0.053624115884
vn -0.143562227488 0.988187432289 0.053624115884
vn -0.248327448964 0.966589510441 -0.063546180725
vn -0.893832683563 0.000000073054 -0.448400586843
vn -0.248327448964 0.966589510441 -0.063546180725
vn -0.143562227488 0.988187432289 0.053624115884
vn 0.864794671535 0.000000149893 -0.502125620842
vn 0.864794671535 0.000000149893 -0.502125620842
vn 0.867616951466 -0.000000173985 0.497233182192
vn -0.248327448964 0.966589510441 -0.063546180725
vn -0.995882749557 -0.000000033347 0.090650908649
vn -0.634787440300 -0.000000209133 0.772686779499
vn -0.143562227488 0.988187432289 0.053624115884
vn -0.634787440300 -0.000000209133 0.772686779499
vn 0.060139514506 -0.000000227545 0.998189985752
vn 0.067693062127 0.966300368309 0.248357087374
vn 0.067693062127 0.966300368309 0.248357087374
vn -0.143562227488 0.988187432289 0.053624115884
vn -0.634787440300 -0.000000209133 0.772686779499
vn -0.143562227488 0.988187432289 0.053624115884
vn 0.067693062127 0.966300368309 0.248357087374
vn -0.000000185188 0.000000203431 -1.000000000000
vn -0.000000185188 0.000000203431 -1.000000000000
vn 0.864794671535 0.000000149893 -0.502125620842
vn -0.143562227488 0.988187432289 0.053624115884
# 162 vertex normals

vt 0.034773662686 0.132139906287 0.000000000000
vt 0.159146830440 0.132139906287 0.000000000000
vt 0.283566355705 0.132139906287 0.000000000000
vt 0.034773662686 0.222000449896 0.000000000000
vt 0.159146830440 0.266930699348 0.000000000000
vt 0.034773662686 0.311860978603 0.000000000000
vt 0.283566355705 0.266930699348 0.000000000000
vt 0.034773662686 0.401721537113 0.000000000000
vt 0.159146830440 0.401721537113 0.000000000000
vt 0.283566355705 0.401721537113 0.000000000000
vt 0.034773662686 0.491582095623 0.000000000000
vt 0.159146830440 0.536512374878 0.000000000000
vt 0.034773662686 0.581442654133 0.000000000000
vt 0.283566355705 0.536512374878 0.000000000000
vt 0.034773662686 0.671303212643 0.000000000000
vt 0.159146830440 0.671303212643 0.000000000000
vt 0.283566355705 0.671303212643 0.000000000000
vt 0.034773662686 0.761163771152 0.000000000000
vt 0.159146830440 0.806094050407 0.000000000000
vt 0.034773662686 0.851024270058 0.000000000000
vt 0.283566325903 0.806094050407 0.000000000000
vt 0.034773662686 0.940884828568 0.000000000000
vt 0.159146830440 0.940884828568 0.000000000000
vt 0.283566355705 0.940884828568 0.000000000000
vt 0.532359063625 0.132139906287 0.000000000000
vt 0.532359063625 0.222000449896 0.000000000000
vt 0.407985866070 0.132139906287 0.000000000000
vt 0.407985866070 0.266930699348 0.000000000000
vt 0.532359063625 0.311860978603 0.000000000000
vt 0.407985866070 0.401721537113 0.000000000000
vt 0.532359063625 0.401721537113 0.000000000000
vt 0.532359063625 0.491582095623 0.000000000000
vt 0.407985866070 0.536512374878 0.000000000000
vt 0.532359063625 0.581442654133 0.000000000000
vt 0.407985866070 0.671303212643 0.000000000000
vt 0.532359063625 0.671303212643 0.000000000000
vt 0.532359063625 0.761163771152 0.000000000000
vt 0.407985866070 0.806094050407 0.000000000000
vt 0.532359063625 0.851024270058 0.000000000000
vt 0.532359063625 0.940884828568 0.000000000000
vt 0.407985866070 0.940884828568 0.000000000000
# 41 texture coords

g Tube004
f 13/1/1 1/2/2 2/5/3 
f 2/5/4 7/4/5 13/1/6 
f 1/2/7 15/3/8 17/7/9 
f 17/7/10 2/5/11 1/2/12 
f 7/4/13 2/5/14 8/6/15 
f 8/6/16 2/5/17 3/9/18 
f 3/9/19 9/8/20 8/6/21 
f 2/5/22 17/7/23 19/10/24 
f 19/10/25 3/9/26 2/5/27 
f 9/8/28 3/9/29 4/12/30 
f 4/12/31 20/11/32 9/8/33 
f 3/9/34 19/10/35 22/14/36 
f 22/14/37 4/12/38 3/9/39 
f 20/11/40 4/12/41 10/13/42 
f 10/13/43 4/12/44 5/16/45 
f 5/16/46 11/15/47 10/13/48 
f 4/12/49 22/14/50 24/17/51 
f 24/17/52 5/16/53 4/12/54 
f 11/15/55 5/16/56 6/19/57 
f 6/19/58 25/18/59 11/15/60 
f 5/16/61 24/17/62 27/21/63 
f 27/21/64 6/19/65 5/16/66 
f 25/18/67 6/19/68 12/20/69 
f 12/20/70 6/19/71 1/23/72 
f 1/23/73 13/22/74 12/20/75 
f 6/19/76 27/21/77 15/24/78 
f 15/24/79 1/23/80 6/19/81 
f 13/25/82 7/26/83 16/28/84 
f 16/28/85 14/27/86 13/25/87 
f 14/27/88 16/28/89 17/7/90 
f 17/7/91 15/3/92 14/27/93 
f 7/26/94 8/29/95 16/28/96 
f 8/29/97 9/31/98 18/30/99 
f 18/30/100 16/28/101 8/29/102 
f 16/28/103 18/30/104 19/10/105 
f 19/10/106 17/7/107 16/28/108 
f 9/31/109 20/32/110 21/33/111 
f 21/33/112 18/30/113 9/31/114 
f 18/30/115 21/33/116 22/14/117 
f 22/14/118 19/10/119 18/30/120 
f 20/32/121 10/34/122 21/33/123 
f 10/34/124 11/36/125 23/35/126 
f 23/35/127 21/33/128 10/34/129 
f 21/33/130 23/35/131 24/17/132 
f 24/17/133 22/14/134 21/33/135 
f 11/36/136 25/37/137 26/38/138 
f 26/38/139 23/35/140 11/36/141 
f 23/35/142 26/38/143 27/21/144 
f 27/21/145 24/17/146 23/35/147 
f 25/37/148 12/39/149 26/38/150 
f 12/39/151 13/40/152 14/41/153 
f 14/41/154 26/38/155 12/39/156 
f 26/38/157 14/41/158 15/24/159 
f 15/24/160 27/21/161 26/38/162 
# 54 faces

