# 3ds Max Wavefront OBJ Exporter v0.97b - (c)2007 guruware
# File Created: 16.02.2019 13:26:28

#
# object Cylinder021
#

v  0.914113521576 0.000000029511 -0.259913206100
v  0.531156599522 0.795218348503 -0.259913206100
v  -0.238214418292 1.350019454956 -0.432032346725
v  -1.019404530525 0.441312789917 -0.259913206100
v  -1.019404530525 -0.441312879324 -0.259913206100
v  0.531156480312 -0.795218467712 -0.259913206100
v  0.702976942062 0.000000019557 0.124250769615
v  0.399515092373 0.630145072937 0.124250769615
v  -0.282357603312 0.785777986050 0.124250769615
v  -0.829177021980 0.349704086781 0.124250769615
v  -0.829177021980 -0.349704116583 0.124250769615
v  -0.282357633114 -0.785778105259 0.124250769615
v  0.399514973164 -0.630145251751 0.124250769615
v  0.466422975063 0.000000006697 0.677235066891
v  0.241854310036 0.467259824276 0.662982821465
v  -0.262746781111 0.582663476467 0.630958080292
v  -0.667405486107 0.259309470654 0.605276226997
v  -0.667405486107 -0.259309619665 0.605276226997
v  -0.262746810913 -0.582663238049 0.630957961082
v  0.241854280233 -0.467259734869 0.662982702255
v  0.381844311953 -0.000000008253 1.335018634796
v  0.185373872519 0.408795595169 1.322549462318
v  -0.256090879440 0.509759783745 1.294531941414
v  -0.610118150711 0.226864382625 1.272063493729
v  -0.610118150711 -0.226864427328 1.272063493729
v  -0.256090879440 -0.509759724140 1.294531941414
v  0.185373812914 -0.408795654774 1.322549581528
v  -1.128853559494 -0.966523170471 -0.130879700184
v  -1.319081068039 -1.058131933212 -0.356472134590
v  -0.949329018593 -1.353557348251 -0.356472194195
v  -0.902346730232 -1.147714376450 -0.130879759789
v  1.439440488815 -0.622201323509 -0.346235752106
v  1.020115494728 -0.683489799500 -0.130879759789
v  1.134364366531 -0.999939322472 -0.346235752106
v  -1.405307650566 -1.426004409790 -0.389287829399
v  -1.189670443535 -1.801135659218 -0.389464080334
v  -1.258573174477 -1.550147056580 -0.271266639233
v  -0.244123935699 0.618265569210 -0.259913206100
v  -0.052645504475 -0.220656409860 -0.259913206100
v  -0.306812286377 -0.987198114395 -0.259913206100
# 40 vertices

vn 0.781227231026 0.297606974840 0.548738658428
vn 0.535221695900 0.641545951366 0.549505770206
vn 0.560492932796 0.699935317039 0.442649036646
vn 0.560492932796 0.699935317039 0.442649036646
vn 0.840580880642 0.129083171487 0.526081085205
vn 0.781227231026 0.297606974840 0.548738658428
vn 0.535221695900 0.641545951366 0.549505770206
vn -0.076045669615 0.715690255165 0.694265425205
vn -0.180285692215 0.816847741604 0.547957003117
vn -0.180285692215 0.816847741604 0.547957003117
vn 0.560492932796 0.699935317039 0.442649036646
vn 0.535221695900 0.641545951366 0.549505770206
vn -0.076045669615 0.715690255165 0.694265425205
vn -0.765027940273 0.428276270628 0.480948746204
vn -0.816175460815 0.369604438543 0.444128572941
vn -0.816175460815 0.369604438543 0.444128572941
vn -0.180285692215 0.816847741604 0.547957003117
vn -0.076045669615 0.715690255165 0.694265425205
vn -0.720275700092 -0.110809616745 0.684780359268
vn -0.758482217789 -0.436226785183 0.484159976244
vn -0.736439347267 -0.288915038109 0.611706793308
vn 0.272014677525 -0.847290635109 0.456187009811
vn -0.087034367025 -0.925756096840 0.367968350649
vn 0.114221341908 -0.866639435291 0.485684603453
vn 0.114221341908 -0.866639435291 0.485684603453
vn 0.243270635605 -0.865326642990 0.438211351633
vn 0.272014677525 -0.847290635109 0.456187009811
vn 0.305218070745 -0.545748531818 0.780384838581
vn 0.466185361147 -0.376509726048 0.800569593906
vn 0.362697213888 -0.431257665157 0.826115965843
vn 0.840580880642 0.129083171487 0.526081085205
vn 0.560492932796 0.699935317039 0.442649036646
vn 0.590678989887 0.762813985348 0.263083904982
vn 0.590678989887 0.762813985348 0.263083904982
vn 0.962246119976 0.001572602545 0.272176295519
vn 0.840580880642 0.129083171487 0.526081085205
vn 0.560492932796 0.699935317039 0.442649036646
vn -0.180285692215 0.816847741604 0.547957003117
vn -0.231193736196 0.940804302692 0.247864410281
vn -0.231193736196 0.940804302692 0.247864410281
vn 0.590678989887 0.762813985348 0.263083904982
vn 0.560492932796 0.699935317039 0.442649036646
vn -0.180285692215 0.816847741604 0.547957003117
vn -0.816175460815 0.369604438543 0.444128572941
vn -0.877508580685 0.416051179171 0.238495558500
vn -0.877508580685 0.416051179171 0.238495558500
vn -0.231193736196 0.940804302692 0.247864410281
vn -0.180285692215 0.816847741604 0.547957003117
vn -0.816175460815 0.369604438543 0.444128572941
vn -0.721800684929 -0.353322893381 0.595118999481
vn -0.878332436085 -0.412686973810 0.241291508079
vn -0.878332436085 -0.412686973810 0.241291508079
vn -0.877508580685 0.416051179171 0.238495558500
vn -0.816175460815 0.369604438543 0.444128572941
vn -0.721800684929 -0.353322893381 0.595118999481
vn -0.226393550634 -0.768944084644 0.597888767719
vn -0.231880605221 -0.938991248608 0.254021346569
vn -0.231880605221 -0.938991248608 0.254021346569
vn -0.878332436085 -0.412686973810 0.241291508079
vn -0.721800684929 -0.353322893381 0.595118999481
vn -0.226393550634 -0.768944084644 0.597888767719
vn 0.548449754715 -0.582546353340 0.599868834019
vn 0.591302037239 -0.760651588440 0.267901182175
vn 0.591302037239 -0.760651588440 0.267901182175
vn -0.231880605221 -0.938991248608 0.254021346569
vn -0.226393550634 -0.768944084644 0.597888767719
vn 0.548449754715 -0.582546353340 0.599868834019
vn 0.840580880642 0.129083171487 0.526081085205
vn 0.962246119976 0.001572602545 0.272176295519
vn 0.962246119976 0.001572602545 0.272176295519
vn 0.591302037239 -0.760651588440 0.267901182175
vn 0.548449754715 -0.582546353340 0.599868834019
vn 0.962246119976 0.001572602545 0.272176295519
vn 0.590678989887 0.762813985348 0.263083904982
vn 0.623274922371 0.772452354431 0.121843077242
vn 0.623274922371 0.772452354431 0.121843077242
vn 0.991834521294 -0.000000072386 0.127531409264
vn 0.962246119976 0.001572602545 0.272176295519
vn 0.590678989887 0.762813985348 0.263083904982
vn -0.231193736196 0.940804302692 0.247864410281
vn -0.214993804693 0.970537722111 0.108784846961
vn -0.214993804693 0.970537722111 0.108784846961
vn 0.623274922371 0.772452354431 0.121843077242
vn 0.590678989887 0.762813985348 0.263083904982
vn -0.231193736196 0.940804302692 0.247864410281
vn -0.877508580685 0.416051179171 0.238495558500
vn -0.895510435104 0.434102594852 0.098061181605
vn -0.895510435104 0.434102594852 0.098061181605
vn -0.214993804693 0.970537722111 0.108784846961
vn -0.231193736196 0.940804302692 0.247864410281
vn -0.877508580685 0.416051179171 0.238495558500
vn -0.878332436085 -0.412686973810 0.241291508079
vn -0.895510435104 -0.434102654457 0.098061166704
vn -0.895510435104 -0.434102654457 0.098061166704
vn -0.895510435104 0.434102594852 0.098061181605
vn -0.877508580685 0.416051179171 0.238495558500
vn -0.878332436085 -0.412686973810 0.241291508079
vn -0.231880605221 -0.938991248608 0.254021346569
vn -0.214993774891 -0.970537781715 0.108784586191
vn -0.214993774891 -0.970537781715 0.108784586191
vn -0.895510435104 -0.434102654457 0.098061166704
vn -0.878332436085 -0.412686973810 0.241291508079
vn -0.231880605221 -0.938991248608 0.254021346569
vn 0.591302037239 -0.760651588440 0.267901182175
vn 0.623274624348 -0.772452592850 0.121842935681
vn 0.623274624348 -0.772452592850 0.121842935681
vn -0.214993774891 -0.970537781715 0.108784586191
vn -0.231880605221 -0.938991248608 0.254021346569
vn 0.591302037239 -0.760651588440 0.267901182175
vn 0.962246119976 0.001572602545 0.272176295519
vn 0.991834521294 -0.000000072386 0.127531409264
vn 0.991834521294 -0.000000072386 0.127531409264
vn 0.623274624348 -0.772452592850 0.121842935681
vn 0.591302037239 -0.760651588440 0.267901182175
vn -0.891174077988 0.126673281193 0.435617506504
vn -0.893280565739 0.226343259215 0.388353675604
vn -0.800436556339 0.162107586861 0.577080965042
vn -0.800436556339 0.162107586861 0.577080965042
vn -0.770894825459 0.110883474350 0.627236843109
vn -0.891174077988 0.126673281193 0.435617506504
vn 0.272014677525 -0.847290635109 0.456187009811
vn 0.243270635605 -0.865326642990 0.438211351633
vn 0.382622778416 -0.746406435966 0.544497251511
vn 0.382622778416 -0.746406435966 0.544497251511
vn 0.482222855091 -0.637744545937 0.600618898869
vn 0.272014677525 -0.847290635109 0.456187009811
vn -0.226393550634 -0.768944084644 0.597888767719
vn -0.721800684929 -0.353322893381 0.595118999481
vn -0.197609111667 -0.247285515070 0.948578178883
vn -0.197609111667 -0.247285515070 0.948578178883
vn -0.194146677852 -0.242702767253 0.950474858284
vn -0.226393550634 -0.768944084644 0.597888767719
vn 0.781227231026 0.297606974840 0.548738658428
vn 0.840580880642 0.129083171487 0.526081085205
vn 0.507807195187 0.104249373078 0.855139672756
vn 0.507807195187 0.104249373078 0.855139672756
vn 0.417637139559 0.230684384704 0.878842413425
vn 0.781227231026 0.297606974840 0.548738658428
vn 0.840580880642 0.129083171487 0.526081085205
vn 0.548449754715 -0.582546353340 0.599868834019
vn 0.507807195187 0.104249373078 0.855139672756
vn 0.114221341908 -0.866639435291 0.485684603453
vn -0.087034367025 -0.925756096840 0.367968350649
vn 0.305218070745 -0.545748531818 0.780384838581
vn 0.305218070745 -0.545748531818 0.780384838581
vn 0.362697213888 -0.431257665157 0.826115965843
vn 0.114221341908 -0.866639435291 0.485684603453
vn -0.770894825459 0.110883474350 0.627236843109
vn -0.800436556339 0.162107586861 0.577080965042
vn -0.720275700092 -0.110809616745 0.684780359268
vn -0.720275700092 -0.110809616745 0.684780359268
vn -0.736439347267 -0.288915038109 0.611706793308
vn -0.770894825459 0.110883474350 0.627236843109
vn 0.080005086958 0.090003639460 -0.992722809315
vn 0.065284416080 0.083101525903 -0.994400382042
vn 0.064579240978 0.055490136147 -0.996368587017
vn 0.064579240978 0.055490136147 -0.996368587017
vn 0.108783744276 0.062998339534 -0.992067217827
vn 0.080005086958 0.090003639460 -0.992722809315
vn 0.482222855091 -0.637744545937 0.600618898869
vn 0.382622778416 -0.746406435966 0.544497251511
vn 0.467468619347 -0.391913622618 0.792386770248
vn 0.467468619347 -0.391913622618 0.792386770248
vn 0.420831084251 -0.289352774620 0.859753549099
vn 0.482222855091 -0.637744545937 0.600618898869
vn -0.194146677852 -0.242702767253 0.950474858284
vn -0.197609111667 -0.247285515070 0.948578178883
vn -0.158055871725 -0.197585731745 0.967459678650
vn 0.065284416080 0.083101525903 -0.994400382042
vn 0.080005086958 0.090003639460 -0.992722809315
vn 0.033177316189 0.042605903000 -0.998540937901
vn 0.033177316189 0.042605903000 -0.998540937901
vn 0.029229227453 0.038155492395 -0.998844265938
vn 0.065284416080 0.083101525903 -0.994400382042
vn -0.041886016726 0.025219269097 -0.998804032803
vn -0.035321041942 0.017009718344 -0.999231278896
vn -0.106868125498 0.066051259637 -0.992076814175
vn -0.106868125498 0.066051259637 -0.992076814175
vn -0.111166313291 0.089782297611 -0.989737927914
vn -0.041886016726 0.025219269097 -0.998804032803
vn 0.052279829979 -0.229052856565 -0.972009062767
vn 0.026324780658 -0.115336365998 -0.992977619171
vn 0.013972972520 -0.061219580472 -0.998026490211
vn 0.052279829979 -0.229052856565 -0.972009062767
vn 0.017080871388 -0.074836157262 -0.997049570084
vn 0.026324780658 -0.115336365998 -0.992977619171
vn 0.013972972520 -0.061219580472 -0.998026490211
vn 0.026324780658 -0.115336365998 -0.992977619171
vn -0.000000000000 0.000000000000 -1.000000000000
vn -0.000000000000 0.000000000000 -1.000000000000
vn 0.033177316189 0.042605903000 -0.998540937901
vn 0.013972972520 -0.061219580472 -0.998026490211
vn -0.000000000000 0.000000000000 -1.000000000000
vn 0.026324780658 -0.115336365998 -0.992977619171
vn 0.017080871388 -0.074836157262 -0.997049570084
vn 0.017080871388 -0.074836157262 -0.997049570084
vn -0.035321041942 0.017009718344 -0.999231278896
vn -0.000000000000 0.000000000000 -1.000000000000
vn -0.000000000000 0.000000000000 -1.000000000000
vn 0.029229227453 0.038155492395 -0.998844265938
vn 0.033177316189 0.042605903000 -0.998540937901
vn 0.029229227453 0.038155492395 -0.998844265938
vn -0.000000000000 0.000000000000 -1.000000000000
vn -0.041886016726 0.025219269097 -0.998804032803
vn -0.035321041942 0.017009718344 -0.999231278896
vn -0.041886016726 0.025219269097 -0.998804032803
vn -0.000000000000 0.000000000000 -1.000000000000
vn -0.816175460815 0.369604438543 0.444128572941
vn -0.765027940273 0.428276270628 0.480948746204
vn -0.721800684929 -0.353322893381 0.595118999481
vn -0.891174077988 0.126673281193 0.435617506504
vn -0.896150887012 -0.000000000000 0.443749427795
vn -0.893280565739 0.226343259215 0.388353675604
# 213 vertex normals

vt 0.944388866425 0.432558268309 0.000000000000
vt 0.887572705746 0.498750448227 0.000000000000
vt 0.946613967419 0.571689784527 0.000000000000
vt 0.972876429558 0.496387481689 0.000000000000
vt 0.757700145245 0.453623980284 0.000000000000
vt 0.867995023727 0.330313950777 0.000000000000
vt 0.155645683408 0.686823904514 0.000000000000
vt 0.099843889475 0.527956902981 0.000000000000
vt 0.177663743496 0.513811945915 0.000000000000
vt 0.233504876494 0.649590313435 0.000000000000
vt 0.159923732281 0.927328526974 0.000000000000
vt 0.742581784725 0.698923647404 0.000000000000
vt 0.851336538792 0.814819633961 0.000000000000
vt 0.027939945459 0.357374578714 0.000000000000
vt 0.176964297891 0.370278507471 0.000000000000
vt 0.174103751779 0.193063348532 0.000000000000
vt 0.235240980983 0.245189249516 0.000000000000
vt 0.277398139238 0.483958810568 0.000000000000
vt 0.316319704056 0.578204095364 0.000000000000
vt 0.277940958738 0.383393943310 0.000000000000
vt 0.316954672337 0.292655050755 0.000000000000
vt 0.330885767937 0.152948662639 0.000000000000
vt 0.382280468941 0.221406236291 0.000000000000
vt 0.499012351036 0.756521999836 0.000000000000
vt 0.503720462322 0.662786722183 0.000000000000
vt 0.351470232010 0.732924044132 0.000000000000
vt 0.396362185478 0.641964375973 0.000000000000
vt 0.389789342880 0.470086276531 0.000000000000
vt 0.496314525604 0.506061077118 0.000000000000
vt 0.599368095398 0.447618246078 0.000000000000
vt 0.408122330904 0.518333554268 0.000000000000
vt 0.502717852592 0.316759556532 0.000000000000
vt 0.428197473288 0.448013812304 0.000000000000
vt 0.665209591389 0.028961332515 0.000000000000
vt 0.781204879284 0.854514658451 0.000000000000
vt 0.692910492420 0.760118782520 0.000000000000
vt 0.959930539131 0.864849865437 0.000000000000
vt 0.691246628761 0.165047183633 0.000000000000
vt 0.837709248066 0.170487627387 0.000000000000
vt 0.544780790806 0.159606754780 0.000000000000
vt 0.685359120369 0.323536813259 0.000000000000
vt 0.395692974329 0.414398789406 0.000000000000
vt 0.426449507475 0.356272965670 0.000000000000
vt 0.475852966309 0.297261029482 0.000000000000
vt 0.510356247425 0.550471544266 0.000000000000
vt 0.448200315237 0.545934796333 0.000000000000
vt 0.633314430714 0.865639925003 0.000000000000
vt 0.579231381416 0.875781476498 0.000000000000
vt 0.238873243332 0.804943263531 0.000000000000
vt 0.146730855107 0.837629616261 0.000000000000
vt 0.606843888760 0.975779175758 0.000000000000
vt 0.633959650993 0.733340322971 0.000000000000
vt 0.607819855213 0.649214506149 0.000000000000
vt 0.585324227810 0.533236563206 0.000000000000
vt 0.094762980938 0.881068408489 0.000000000000
vt 0.147001683712 0.887609660625 0.000000000000
vt 0.387643516064 0.838883817196 0.000000000000
vt 0.357127606869 0.913579881191 0.000000000000
vt 0.230066239834 0.930149257183 0.000000000000
vt 0.259923160076 0.881566107273 0.000000000000
vt 0.517691969872 0.941797077656 0.000000000000
vt 0.968424499035 0.953515827656 0.000000000000
vt 0.896490991116 0.903182923794 0.000000000000
vt 0.650632083416 0.625855743885 0.000000000000
vt 0.681704461575 0.577089488506 0.000000000000
vt 0.631699860096 0.524927675724 0.000000000000
vt 0.667997539043 0.485593587160 0.000000000000
# 67 texture coords

g Cylinder021
f 1/7/1 2/8/2 8/9/3 
f 8/9/4 7/10/5 1/7/6 
f 2/8/7 3/14/8 9/15/9 
f 9/15/10 8/9/11 2/8/12 
f 3/14/13 4/16/14 10/17/15 
f 10/17/16 9/15/17 3/14/18 
f 35/11/19 36/55/20 37/56/21 
f 40/12/22 6/13/23 13/35/24 
f 13/35/25 12/36/26 40/12/27 
f 34/37/28 32/62/29 33/63/30 
f 7/10/31 8/9/32 15/18/33 
f 15/18/34 14/19/35 7/10/36 
f 8/9/37 9/15/38 16/20/39 
f 16/20/40 15/18/41 8/9/42 
f 9/15/43 10/17/44 17/21/45 
f 17/21/46 16/20/47 9/15/48 
f 10/17/49 11/22/50 18/23/51 
f 18/23/52 17/21/53 10/17/54 
f 11/52/55 12/24/56 19/25/57 
f 19/25/58 18/53/59 11/52/60 
f 12/24/61 13/26/62 20/27/63 
f 20/27/64 19/25/65 12/24/66 
f 13/26/67 7/10/68 14/19/69 
f 14/19/70 20/27/71 13/26/72 
f 14/19/73 15/18/74 22/28/75 
f 22/28/76 21/31/77 14/19/78 
f 15/18/79 16/20/80 23/42/81 
f 23/42/82 22/28/83 15/18/84 
f 16/20/85 17/21/86 24/43/87 
f 24/43/88 23/42/89 16/20/90 
f 17/21/91 18/23/92 25/44/93 
f 25/44/94 24/43/95 17/21/96 
f 18/53/97 19/25/98 26/45/99 
f 26/45/100 25/54/101 18/53/102 
f 19/25/103 20/27/104 27/46/105 
f 27/46/106 26/45/107 19/25/108 
f 20/27/109 14/19/110 21/31/111 
f 21/31/112 27/46/113 20/27/114 
f 11/57/115 5/58/116 29/59/117 
f 29/59/118 28/60/119 11/57/120 
f 40/12/121 12/36/122 31/64/123 
f 31/64/124 30/65/125 40/12/126 
f 12/24/127 11/52/128 28/47/129 
f 28/47/130 31/48/131 12/24/132 
f 1/7/133 7/10/134 33/49/135 
f 33/49/136 32/50/137 1/7/138 
f 7/10/139 13/26/140 33/49/141 
f 13/35/142 6/13/143 34/37/144 
f 34/37/145 33/63/146 13/35/147 
f 28/60/148 29/59/149 35/11/150 
f 35/11/151 37/56/152 28/60/153 
f 29/1/154 30/2/155 36/3/156 
f 36/3/157 35/4/158 29/1/159 
f 30/65/160 31/64/161 37/66/162 
f 37/66/163 36/67/164 30/65/165 
f 31/48/166 28/47/167 37/51/168 
f 30/2/169 29/1/170 5/6/171 
f 5/6/172 40/5/173 30/2/174 
f 6/30/175 1/32/176 32/33/177 
f 32/33/178 34/29/179 6/30/180 
f 3/34/181 38/38/182 4/39/183 
f 3/34/184 2/40/185 38/38/186 
f 4/39/187 38/38/188 39/41/189 
f 39/41/190 5/6/191 4/39/192 
f 39/41/193 38/38/194 2/40/195 
f 2/40/196 1/32/197 39/41/198 
f 39/41/199 40/5/200 5/6/201 
f 40/5/202 39/41/203 6/30/204 
f 1/32/205 6/30/206 39/41/207 
f 10/17/208 4/16/209 11/22/210 
f 11/57/211 4/61/212 5/58/213 
# 71 faces

